<?xml version="1.0" encoding="UTF-8"?>
<svg width="16px" height="16px" viewBox="0 0 16 16" version="1.1" xmlns="http://www.w3.org/2000/svg" xmlns:xlink="http://www.w3.org/1999/xlink">
    <!-- Generator: Sketch 50.2 (55047) - http://www.bohemiancoding.com/sketch -->
    <title>Shape</title>
    <desc>Created with Sketch.</desc>
    <defs></defs>
    <g id="index" stroke="none" stroke-width="1" fill="none" fill-rule="evenodd">
        <g id="首页" transform="translate(-1761.000000, -94.000000)" fill="#01579B" fill-rule="nonzero">
            <g id="Group-19" transform="translate(1733.000000, 0.000000)">
                <g id="Group-17" transform="translate(9.000000, 89.000000)">
                    <g id="Group-14" transform="translate(13.000000, 0.000000)">
                        <path d="M20.2034577,18.1926031 C19.9188627,18.1926031 19.6658894,18.2136842 19.4392675,18.2488194 L21.7090002,13.8990838 C21.7898111,13.744489 21.8038652,13.5635428 21.7458922,13.3984075 C21.6879191,13.2332721 21.564946,13.0997584 21.4050809,13.0294881 L17.8985897,11.4747563 L17.8985897,7.89799474 C17.8985897,7.68718365 17.7949409,7.49218339 17.619265,7.37448053 L14.2638551,5.10826129 C14.0512873,4.96420704 13.7719626,4.96420704 13.557638,5.10650453 L10.1670929,7.37272377 C9.99141701,7.49042663 9.88601147,7.68718365 9.88601147,7.89799474 L9.88601147,11.4940806 L6.41641225,13.0294881 C6.25654717,13.0997584 6.13357403,13.2332721 6.07560098,13.3966507 C6.01762793,13.5600293 6.02992524,13.7409755 6.1089794,13.8973271 L8.84249656,19.2185504 C8.52627992,19.3643614 8.16438755,19.4592264 7.61627871,19.4592264 C7.26668365,19.4592264 6.99789951,19.4188209 6.78181814,19.3608479 C6.49897992,19.2853072 6.20384439,19.4170642 6.07384422,19.680578 C6.0703307,19.6858483 6.06857394,19.6911186 6.06506043,19.6981456 C5.88938452,20.0565245 6.08438478,20.4869304 6.47087178,20.5888225 C6.8222236,20.6819307 7.19465653,20.7258497 7.61627871,20.7258497 C8.8407398,20.7258497 9.47844336,20.3411194 10.0406063,20.0020649 C10.5430394,19.6999024 10.9383102,19.4609831 11.8114194,19.4609831 C12.6845287,19.4609831 13.0797995,19.6999024 13.5822326,20.0020649 C14.1443955,20.3411194 14.7820991,20.7258497 16.0065602,20.7258497 C17.2310213,20.7258497 17.8687248,20.3411194 18.4308877,20.0020649 C18.9333208,19.6999024 19.3285916,19.4609831 20.2017009,19.4609831 C20.5460257,19.4609831 20.8130531,19.4996318 21.0273777,19.5558481 C21.3172429,19.6313888 21.6194055,19.490848 21.7511624,19.2220639 C21.9268383,18.863685 21.7318381,18.4332791 21.3453511,18.331387 C20.9975128,18.236522 20.6250798,18.1926031 20.2034577,18.1926031 Z M11.1526348,8.23529249 L13.9089898,6.39245219 L16.6337232,8.23353573 L16.6337232,10.9125934 L14.1760172,9.82340271 C14.0126386,9.75137559 13.8264221,9.75137559 13.6630435,9.82340271 L11.1526348,10.9336745 L11.1526348,8.23529249 Z M14.5256123,19.0850367 L14.5256123,13.3439479 C14.5256123,12.9943529 14.242774,12.7115147 13.893179,12.7115147 C13.5435839,12.7115147 13.2607457,12.9943529 13.2607457,13.3439479 L13.2607457,18.4227385 C12.8812857,18.2874681 12.4192581,18.1926031 11.8131762,18.1926031 C10.9681751,18.1926031 10.4024986,18.375306 9.9492548,18.6001712 L7.54249483,13.9148947 L13.9195304,11.0935395 L20.2772415,13.9113811 L17.612238,19.0147663 C17.181832,19.2677396 16.7830477,19.4574696 16.0083169,19.4574696 C15.3073701,19.4574696 14.913856,19.3028748 14.5256123,19.0850367 Z" id="Shape"></path>
                    </g>
                </g>
            </g>
        </g>
    </g>
</svg>