<?xml version="1.0" encoding="UTF-8"?>
<svg width="17px" height="17px" viewBox="0 0 17 17" version="1.1" xmlns="http://www.w3.org/2000/svg" xmlns:xlink="http://www.w3.org/1999/xlink">
    <!-- Generator: Sketch 50.2 (55047) - http://www.bohemiancoding.com/sketch -->
    <title>Shape</title>
    <desc>Created with Sketch.</desc>
    <defs></defs>
    <g id="index" stroke="none" stroke-width="1" fill="none" fill-rule="evenodd">
        <g id="首页" transform="translate(-1761.000000, -137.000000)" fill="#01579B" fill-rule="nonzero">
            <g id="Group-19" transform="translate(1733.000000, 0.000000)">
                <g id="Group-18" transform="translate(9.000000, 132.000000)">
                    <g id="Group-15" transform="translate(13.000000, 0.000000)">
                        <g id="Group-16">
                            <path d="M22.2824447,7.44150951 C22.2062794,7.25041223 22.0400629,7.10970805 21.8390129,7.06613937 L13.2281868,5.20578843 C12.9827525,5.15422659 12.7311308,5.25322531 12.5888201,5.45741018 C12.4465095,5.66365752 12.4423845,5.93384152 12.5764453,6.1442138 L16.1218369,11.6592674 L15.3133474,12.8451896 C14.8719781,12.5275687 14.0758634,12.3955704 12.8177546,12.2140727 C12.0546395,12.1047617 11.1925257,11.9789508 10.8501551,11.809828 L9.43529841,11.1106495 C9.28061292,11.034338 9.09911527,11.0260881 8.93824235,11.0879623 C8.77736943,11.1498365 8.64949608,11.2777099 8.58555941,11.4385828 L6.27352684,17.3207567 C6.15650145,17.6199799 6.28712105,17.9590541 6.57464794,18.1024341 L13.9727397,21.7591992 C13.9789271,21.7612617 13.9892395,21.7674491 13.991302,21.7674491 C14.2078617,21.8746978 14.4367962,21.9262596 14.6636683,21.9262596 C15.1710367,21.9262596 15.6680928,21.6684504 15.9836512,21.2043939 L15.9939636,21.1899566 C16.3734586,20.6929005 17.6790043,18.9707353 18.5246183,17.6961268 C18.893801,17.2217579 19.0526115,16.5762038 18.9515503,15.9657117 C18.9474253,15.940962 18.9412379,15.9162123 18.9350505,15.8935251 C18.7844899,15.3717194 18.435932,14.9386 17.9718755,14.6993531 L17.7408785,14.5859171 L22.2205705,8.02106451 C22.336069,7.84987922 22.3587562,7.63331952 22.2824447,7.44150951 Z M9.49098519,12.5193188 L10.1942886,12.8678768 L8.33600014,17.5930031 L7.63269675,17.2444452 L9.49098519,12.5193188 Z M17.5366936,16.9495115 C17.5263812,16.9618863 17.5160689,16.9763236 17.507819,16.9886985 L17.4954441,17.0072607 C17.4521322,17.0711974 17.4088203,17.1371965 17.3634458,17.2052582 L16.5033945,16.7577015 C16.3070237,16.6556476 16.0711246,16.6661085 15.8845581,16.7851436 C15.6979915,16.9041788 15.5891013,17.1137038 15.5989055,17.3347928 C15.6087096,17.5558817 15.7357186,17.7549459 15.9320894,17.8569997 L16.6498301,18.2303074 C16.4868947,18.459242 16.3218968,18.6840515 16.1630864,18.9006112 L15.4762827,18.4736793 C15.2887542,18.3568884 15.0531636,18.3490145 14.8582555,18.4530235 C14.6633474,18.5570326 14.538733,18.7571231 14.5313534,18.977923 C14.5239739,19.1987229 14.6349502,19.4066873 14.8224787,19.5234782 L15.420596,19.8967858 C15.2432233,20.1319078 15.1009126,20.3195929 15.0101638,20.4392163 L14.9874766,20.4701534 C14.9792267,20.4804658 14.9647894,20.503153 14.9565395,20.5134654 C14.8699156,20.6413387 14.7152301,20.7465249 14.5419823,20.6619634 L14.2491111,21.2064564 L14.5296075,20.655776 C14.527545,20.655776 14.5254826,20.6537135 14.5234201,20.6537135 L9.44973574,18.1436835 L11.3802108,13.239122 C11.7679557,13.3154335 12.1990127,13.3773077 12.6424444,13.4412444 C13.2632489,13.5299307 14.2841732,13.6784288 14.5605446,13.8310518 C14.9400397,14.4931058 15.3875964,14.7921644 15.4391582,14.825164 C15.4577205,14.8375388 15.4783452,14.8478512 15.4969075,14.8581635 L17.4150077,15.8048388 C17.5593808,15.8790878 17.6748793,16.023461 17.7367535,16.2049586 C17.7676906,16.4648302 17.6975665,16.7432641 17.5366936,16.9495115 Z M16.6209554,14.0311117 L16.1589614,13.8021772 L17.3758207,12.0181378 C17.5160689,11.8118905 17.5201938,11.5437689 17.3840706,11.3354591 L14.4244214,6.72995622 L20.6799029,8.08293871 L16.6209554,14.0311117 Z" id="Shape"></path>
                        </g>
                    </g>
                </g>
            </g>
        </g>
    </g>
</svg>