<?xml version="1.0" encoding="UTF-8"?>
<svg width="16px" height="17px" viewBox="0 0 16 17" version="1.1" xmlns="http://www.w3.org/2000/svg" xmlns:xlink="http://www.w3.org/1999/xlink">
    <!-- Generator: Sketch 50.2 (55047) - http://www.bohemiancoding.com/sketch -->
    <title>Shape</title>
    <desc>Created with Sketch.</desc>
    <defs></defs>
    <g id="index" stroke="none" stroke-width="1" fill="none" fill-rule="evenodd">
        <g id="首页" transform="translate(-1761.000000, -179.000000)" fill="#01579B" fill-rule="nonzero">
            <g id="Group-19" transform="translate(1733.000000, 0.000000)">
                <g id="Group-18" transform="translate(9.000000, 174.000000)">
                    <g id="Group-15" transform="translate(13.000000, 0.000000)">
                        <g id="Group-16">
                            <path d="M13.6397956,21.1106373 C12.577369,21.1106373 11.4301478,20.8802861 10.2298733,20.4259321 C10.1378235,20.384215 4.46429322,17.5995963 6.40368652,11.068144 C6.40867444,11.0522734 6.41411581,11.0368562 6.42046407,11.021439 C6.4939225,10.8464084 8.27506276,6.72956206 12.8294856,6.17499624 C12.9600783,6.1582187 13.0879504,6.19948238 13.1849881,6.28563734 C13.2820258,6.37179229 13.3377998,6.49558335 13.3377998,6.62526922 L13.3377998,13.9561487 L20.5172279,13.9561487 C20.6559828,13.9561487 20.787029,14.0196313 20.8727305,14.1280052 C20.958432,14.236379 20.9901733,14.3787614 20.958432,14.5134352 C20.9425613,14.579185 19.3364517,21.1106373 13.6397956,21.1106373 Z M7.26523604,11.3529088 C5.56662315,17.1298251 10.3790574,19.4945518 10.5849224,19.5920429 C11.6482558,19.9928901 12.6875566,20.203743 13.6393421,20.203743 C17.7498402,20.203743 19.4226066,16.3403736 19.911876,14.8625895 L12.8843527,14.8625895 C12.6335964,14.8625895 12.4309056,14.6594452 12.4309056,14.4091424 L12.4309056,7.15670924 C8.90898183,7.85547124 7.39356157,11.0676906 7.26523604,11.3529088 Z M21.5465529,12.3309943 C21.5442857,12.3309943 21.5402046,12.3309943 21.5374839,12.3309943 L15.0382265,12.3309943 C14.7874702,12.3309943 14.5847793,12.1278499 14.5847793,11.8775471 L14.5847793,5.45356188 C14.5847793,5.32795703 14.6369258,5.20779355 14.7285221,5.12254549 C14.819665,5.03639054 14.9411888,4.99104583 15.0686074,5.00147511 C15.128009,5.00555613 21.0187404,5.47260666 21.9727932,11.7229217 C21.9904776,11.7709871 22,11.8231335 22,11.8775471 C22,12.1278499 21.7968557,12.3309943 21.5465529,12.3309943 Z M15.4916736,11.4241 L20.9992422,11.4241 C20.1512961,7.26100208 16.7622324,6.22260819 15.4916736,5.97774675 L15.4916736,11.4241 Z" id="Shape"></path>
                        </g>
                    </g>
                </g>
            </g>
        </g>
    </g>
</svg>