<?xml version="1.0" encoding="UTF-8"?>
<svg width="15px" height="15px" viewBox="0 0 15 15" version="1.1" xmlns="http://www.w3.org/2000/svg" xmlns:xlink="http://www.w3.org/1999/xlink">
    <!-- Generator: Sketch 50.2 (55047) - http://www.bohemiancoding.com/sketch -->
    <title>Shape</title>
    <desc>Created with Sketch.</desc>
    <defs></defs>
    <g id="index" stroke="none" stroke-width="1" fill="none" fill-rule="evenodd">
        <g id="首页" transform="translate(-1761.000000, -222.000000)" fill="#01579B" fill-rule="nonzero">
            <g id="Group-19" transform="translate(1733.000000, 0.000000)">
                <g id="Group-18" transform="translate(22.000000, 216.000000)">
                    <g id="Group-15">
                        <g id="Group-16">
                            <path d="M13.5853872,12.2898089 C14.6248038,12.2898089 15.4712914,11.4712453 15.4712914,10.4641374 C15.4712914,9.45702945 14.6248038,8.6384658 13.5853872,8.6384658 C12.5459706,8.6384658 11.6994831,9.45702945 11.6994831,10.4641374 C11.6994831,11.4712453 12.5457399,12.2898089 13.5853872,12.2898089 Z M13.5853872,9.53503184 C14.1085572,9.53503184 14.5320318,9.95573709 14.5320318,10.4747531 C14.5320318,10.9930767 14.1085572,11.4144743 13.5853872,11.4144743 C13.0629096,11.4144743 12.6387427,10.9930767 12.6387427,10.4747531 C12.6387427,9.95573709 13.0629096,9.53503184 13.5853872,9.53503184 Z M11.7599465,15.0515093 C11.7871781,15.0902797 11.8139481,15.1214345 11.8358719,15.1438198 C12.4721222,15.9139204 13.1134496,16.4262439 13.1411428,16.4479369 L13.5879258,16.8031016 L14.0328625,16.4451676 C14.0605557,16.4234746 14.6998061,15.9051509 15.3349026,15.1378196 C15.3565956,15.114742 15.3842888,15.0826641 15.4112896,15.0432013 C16.3193945,13.861165 17.4483523,12.1481123 17.7035909,10.6651435 C17.7527462,10.3270562 17.7541309,10.1223576 17.7541309,10.0999723 C17.7626696,8.99178436 17.3205022,7.95029078 16.5097849,7.17072833 C15.7246838,6.41562817 14.6857288,6 13.5853872,6 C12.4891997,6 11.4530139,6.41562817 10.6679129,7.17072833 C9.85281086,7.95444476 9.40787409,9.00124619 9.41641281,10.1175113 C9.41641281,10.1352811 9.41779746,10.340672 9.46510662,10.662605 C9.73903813,12.249423 11.013385,14.0840949 11.7599465,15.0515093 Z M13.5853872,7.15457398 C15.3039786,7.15457398 16.7107911,8.52769315 16.6983292,10.2338226 C16.6983292,10.2338226 16.6983292,10.3882119 16.6609434,10.6441429 C16.4553217,11.838872 15.4844457,13.3188406 14.7060371,14.3296409 C14.6998061,14.3416413 14.6873442,14.3531801 14.681344,14.3594111 C14.1394812,15.0189698 13.5853873,15.4650605 13.5853872,15.4650605 C13.5853872,15.4650605 13.0310625,15.02497 12.4894304,14.3654112 C12.4834303,14.3594111 12.4709683,14.3471799 12.4645066,14.3356411 C11.686098,13.3310717 10.715222,11.8448722 10.5098311,10.6556817 C10.4724453,10.4004431 10.4724453,10.2453614 10.4724453,10.2453614 C10.4597526,8.53946275 11.8667959,7.15457398 13.5853872,7.15457398 Z M9.08917198,20.5386781 L19.3808733,20.5386781 C20.266362,20.5386781 21,19.8664267 21,19.0162467 C21,18.1660667 20.266362,17.494046 19.3808733,17.494046 L7.61889596,17.494046 C7.28634726,17.494046 7.0324933,17.2614234 7.0324933,16.9960306 C7.0324933,16.7304071 7.28634726,16.4977845 7.61889596,16.4977845 L9.45679867,16.4977845 C9.5931838,16.4983978 9.72421985,16.444775 9.82104846,16.3487255 C9.91787706,16.2526761 9.97255676,16.1220775 9.97304532,15.9856919 C9.97249558,15.8493253 9.91779636,15.7187624 9.82098109,15.6227261 C9.72416582,15.5266899 9.59316528,15.4730472 9.45679867,15.4735992 L7.61889596,15.4735992 C6.73363795,15.4735992 6,16.1456199 6,16.9960306 C6,17.8462106 6.73363795,18.5182313 7.61889596,18.5182313 L19.3808733,18.5182313 C19.7136527,18.5182313 19.9675067,18.7506231 19.9675067,19.0162467 C19.9675067,19.2818702 19.7136527,19.514262 19.3808733,19.514262 L9.08917198,19.514262 C8.80516548,19.5132403 8.57407021,19.7425794 8.57292531,20.0265854 C8.57419721,20.3105012 8.8052552,20.5397 9.08917198,20.5386781 Z" id="Shape"></path>
                        </g>
                    </g>
                </g>
            </g>
        </g>
    </g>
</svg>