<?xml version="1.0" standalone="no"?><!DOCTYPE svg PUBLIC "-//W3C//DTD SVG 1.1//EN" "http://www.w3.org/Graphics/SVG/1.1/DTD/svg11.dtd"><svg t="1533784096407" class="icon" style="" viewBox="0 0 1024 1024" version="1.1" xmlns="http://www.w3.org/2000/svg" p-id="5622" xmlns:xlink="http://www.w3.org/1999/xlink" width="200" height="200"><defs><style type="text/css"></style></defs><path d="M511.998976 0C301.654016 0 131.136512 170.517504 131.136512 380.862464c0 67.254272 36.737024 156.447744 102.350848 263.996416 24.828928 40.695808 53.395456 83.280896 84.98688 127.164416 40.327168 56.022016 83.490816 111.330304 126.651392 163.535872 15.108096 18.272256 29.142016 34.860032 41.746432 49.457152 7.586816 8.787968 13.0304 14.98112 15.973376 18.2784l18.491392 20.70528 17.974272-21.156864c2.801664-3.29728 7.98208-9.490432 15.202304-18.281472 11.994112-14.600192 25.345024-31.187968 39.718912-49.463296 41.06752-52.205568 82.131968-107.515904 120.502272-163.538944 30.0544-43.88352 57.232384-86.465536 80.850944-127.156224 62.362624-107.442176 97.278976-196.544512 97.278976-263.54176C892.863488 170.517504 722.343936 0 511.998976 0z m241.75616 620.12416c-22.969344 39.573504-49.513472 81.161216-78.926848 124.106752-37.710848 55.0656-78.16192 109.544448-118.60992 160.96768a2980.600832 2980.600832 0 0 1-35.801088 44.627968 3024.29184 3024.29184 0 0 1-38.018048-45.085696c-42.517504-51.426304-85.030912-105.9072-124.673024-160.973824-30.912512-42.945536-58.809344-84.52608-82.950144-124.097536-61.280256-100.443136-95.275008-182.980608-95.275008-238.808064 0-183.632896 148.864-332.496896 332.496896-332.496896 183.635968 0 332.499968 148.864 332.499968 332.496896 0.001024 56.082432-32.37888 138.713088-90.742784 239.26272z" fill="" p-id="5623"></path><path d="M511.998976 202.522624c-98.492416 0-178.33984 79.847424-178.33984 178.33984 0 98.495488 79.847424 178.342912 178.33984 178.342912 98.495488 0 178.342912-79.847424 178.342912-178.342912-0.001024-98.492416-79.848448-178.33984-178.342912-178.33984z m0 308.317184c-71.7824 0-129.975296-58.191872-129.975296-129.977344 0-71.7824 58.191872-129.975296 129.975296-129.975296 71.785472 0 129.977344 58.191872 129.977344 129.975296 0 71.785472-58.191872 129.977344-129.977344 129.977344z" fill="" p-id="5624"></path></svg>