<?xml version="1.0" encoding="UTF-8"?>
<svg width="18px" height="25px" viewBox="0 0 18 25" version="1.1" xmlns="http://www.w3.org/2000/svg" xmlns:xlink="http://www.w3.org/1999/xlink">
    <!-- Generator: Sketch 50.2 (55047) - http://www.bohemiancoding.com/sketch -->
    <title>定位</title>
    <desc>Created with Sketch.</desc>
    <defs></defs>
    <g id="Page-1" stroke="none" stroke-width="1" fill="none" fill-rule="evenodd">
        <g id="2.1-搜索-船舶" transform="translate(-1641.000000, -186.000000)" fill="#666666" fill-rule="nonzero">
            <g id="Group-11" transform="translate(1532.000000, 123.000000)">
                <g id="Group-2" transform="translate(21.000000, 31.000000)">
                    <g id="定位" transform="translate(78.329670, 25.989011)">
                        <rect id="Rectangle-path" opacity="0" x="0" y="0" width="36.3956044" height="36.3956044"></rect>
                        <path d="M18.1978022,6.11332418 C13.4866919,6.11332418 9.66758242,9.93243366 9.66758242,14.643544 C9.66758242,19.3550687 18.1978022,30.2822802 18.1978022,30.2822802 C18.1978022,30.2822802 26.728022,19.3550687 26.728022,14.643544 C26.728022,9.93243366 22.9089125,6.11332418 18.1978022,6.11332418 Z M18.8062912,20.44125 C16.2929362,20.6987878 13.8895217,19.3466279 12.8048039,17.0648158 C11.720086,14.7830038 12.1888681,12.0654716 13.9753841,10.2789556 C15.7619001,8.49243953 18.4794324,8.02365747 20.7612444,9.10837531 C23.0430565,10.1930931 24.3952164,12.5965077 24.1376786,15.1098626 C23.8491014,17.9261358 21.6225644,20.1526728 18.8062912,20.44125 Z" id="Shape"></path>
                    </g>
                </g>
            </g>
        </g>
    </g>
</svg>