<?xml version="1.0" standalone="no"?><!DOCTYPE svg PUBLIC "-//W3C//DTD SVG 1.1//EN" "http://www.w3.org/Graphics/SVG/1.1/DTD/svg11.dtd"><svg t="1531316739038" class="icon" style="" viewBox="0 0 1024 1024" version="1.1" xmlns="http://www.w3.org/2000/svg" p-id="1619" xmlns:xlink="http://www.w3.org/1999/xlink" width="200" height="200"><defs><style type="text/css"></style></defs><path d="M847.557 895.557h-671.083c-45.003 0-81.156-17.641-99.21-48.411-18.060-30.767-15.862-70.96 6.051-110.233l338.598-606.81c22.039-39.561 54.815-62.236 89.879-62.236 35.069 0 67.811 22.647 89.913 62.172l338.954 606.937c21.908 39.274 24.173 79.436 6.080 110.199-18.026 30.767-54.208 48.378-99.184 48.378v0zM511.825 131.567c-11.149 0-23.92 11.052-34.272 29.558l-338.598 606.874c-10.609 19.046-13.093 36.155-6.755 46.947 6.342 10.766 22.487 16.947 44.274 16.947h671.083c21.821 0 37.937-6.149 44.274-16.947 6.303-10.765 3.853-27.867-6.785-46.913l-338.949-606.907c-10.323-18.506-23.158-29.558-34.272-29.558v0zM512.015 608.208c-17.578 0-31.846-14.24-31.846-31.851v-286.653c0-17.582 14.269-31.851 31.85-31.851 17.582 0 31.851 14.269 31.851 31.851v286.653c0 17.612-14.269 31.851-31.851 31.851v0zM464.243 719.811c0-12.51 5.147-24.941 13.989-33.787 8.846-8.839 21.278-13.994 33.782-13.994 12.509 0 24.935 5.152 33.781 13.989 8.846 8.846 13.998 21.278 13.998 33.787M559.794 714.336c0 12.51-5.147 24.941-13.994 33.787-8.846 8.841-21.278 13.989-33.782 13.989-12.509 0-24.937-5.152-33.781-13.989-8.844-8.846-13.996-21.278-13.996-33.787z" fill="#ea9518" p-id="1620"></path></svg>