<?xml version="1.0" encoding="UTF-8"?>
<svg width="39px" height="35px" viewBox="0 0 39 35" version="1.1" xmlns="http://www.w3.org/2000/svg" xmlns:xlink="http://www.w3.org/1999/xlink">
    <!-- Generator: Sketch 50.2 (55047) - http://www.bohemiancoding.com/sketch -->
    <title>基站信号</title>
    <desc>Created with Sketch.</desc>
    <defs></defs>
    <g id="index" stroke="none" stroke-width="1" fill="none" fill-rule="evenodd">
        <g id="7-要素首页" transform="translate(-166.000000, -555.000000)" fill-rule="nonzero">
            <g id="基站信号" transform="translate(165.000000, 552.000000)">
                <rect id="Rectangle-path" fill="#000000" opacity="0" x="0" y="0" width="41" height="41"></rect>
                <path d="M4.87970411,12.9036594 C4.87502817,10.3505964 5.87100333,7.89572802 7.65721228,6.07211154 C8.04999122,5.67933261 8.19962129,5.10886796 8.04999122,4.57581084 C7.90036115,4.04275372 7.47952658,3.63127102 6.94179351,3.49566877 C6.40406045,3.36006652 5.83827175,3.52372441 5.45484469,3.92585522 C0.521728326,8.97587008 0.587191481,17.0558939 5.59512288,22.0264177 C6.1983191,22.624938 7.17091456,22.624938 7.76943484,22.0217418 C8.36795512,21.4185456 8.36795512,20.4459501 7.7647589,19.8427539 C5.91308678,18.0097856 4.87502817,15.5128338 4.87970411,12.9036594 Z M27.833892,7.07743857 C27.2213439,7.66660697 27.2026402,8.63920243 27.7918086,9.25175053 C29.7884348,11.3325437 29.7463514,14.6244052 27.6982898,16.653763 C27.296159,17.0371901 27.1278251,17.6123307 27.2681033,18.1500637 C27.4037056,18.6877968 27.8245401,19.1133073 28.3622732,19.2582615 C28.9000063,19.4032156 29.4751469,19.2442336 29.8632498,18.8421028 C33.1036761,15.6344082 33.1738151,10.4160595 30.0128799,7.12419797 C29.7323235,6.82961377 29.3442205,6.66127994 28.9327379,6.65192806 C28.5259311,6.64257618 28.1284762,6.79688219 27.833892,7.07743857 Z M35.5258128,3.92585522 C35.1423858,3.52372441 34.5765971,3.36006652 34.038864,3.49566877 C33.5011309,3.63127102 33.0802964,4.04275372 32.9306663,4.57581084 C32.7810362,5.10886796 32.9306663,5.67933261 33.3234452,6.07211154 C37.0688729,9.91105802 37.0221135,16.0552428 33.2158986,19.838078 C32.6127024,20.4365983 32.6080264,21.4138696 33.2112227,22.0123899 C33.8097429,22.6155861 34.7870143,22.6202621 35.3902106,22.0170659 C40.3887901,17.0512179 40.4495773,8.97587008 35.5258128,3.92585522 Z M13.2963955,18.8327509 C13.8949158,18.2295547 13.8902399,17.2522833 13.2870437,16.658439 C11.2389821,14.6337571 11.1968986,11.3372196 13.1935249,9.25642646 C13.7826933,8.64387837 13.7639895,7.66660697 13.1514414,7.08211451 C12.5388933,6.49294611 11.5616219,6.51164987 10.9771295,7.12419797 C7.81619423,10.4160595 7.88633333,15.6344082 11.1267595,18.8421028 C11.7206039,19.4406231 12.6978753,19.4359472 13.2963955,18.8327509 Z M22.7417937,16.4947811 C24.2427703,15.49413 24.9114297,13.6284301 24.3924004,11.9030083 C23.8733711,10.1775866 22.2882276,8.9898979 20.4833148,8.98054602 C18.6784021,8.97119414 17.0792308,10.1401791 16.5414977,11.8609249 C16.0037646,13.5816707 16.6537202,15.4520465 18.145345,16.4714014 L11.2343061,35.4603925 C10.9443979,36.2599781 11.3558806,37.1390548 12.1554663,37.433639 C12.9550519,37.7235473 13.8341286,37.3073886 14.1287128,36.5124789 L15.5922819,32.4958467 L25.2901808,32.4958467 L26.7864815,36.6106736 C27.0530101,37.3307683 27.8479198,37.7048435 28.5680146,37.4429909 L28.8485709,37.3401202 C29.5686656,37.0735917 29.9427408,36.2786819 29.6808882,35.5585872 L22.7417937,16.4947811 Z M20.4365554,19.1694186 L22.2975794,24.2848966 L18.5755314,24.2848966 L20.4365554,19.1694186 Z M16.5835811,29.755746 L17.5795563,27.0203213 L23.2935546,27.0203213 L24.2895297,29.755746 L16.5835811,29.755746 Z" id="Shape" fill="#01579B"></path>
            </g>
        </g>
    </g>
</svg>