<?xml version="1.0" standalone="no"?><!DOCTYPE svg PUBLIC "-//W3C//DTD SVG 1.1//EN" "http://www.w3.org/Graphics/SVG/1.1/DTD/svg11.dtd"><svg t="1536834467046" class="icon" style="" viewBox="0 0 1024 1024" version="1.1" xmlns="http://www.w3.org/2000/svg" p-id="1173" xmlns:xlink="http://www.w3.org/1999/xlink" width="200" height="200"><defs><style type="text/css"></style></defs><path d="M645.981308 322.193146h-111.65109V242.442368c47.850467-15.950156 82.94081-63.800623 82.94081-118.031153 0-66.990654-54.23053-124.411215-124.411215-124.411215h-3.190031c-66.990654 0-124.411215 54.23053-124.411215 124.411215 0 54.23053 35.090343 102.080997 82.94081 118.031153V322.193146h-111.65109v57.420561h118.031152v194.5919s-41.470405 114.841121-130.791277 111.651091c-89.320872-3.190031-185.021807-82.94081-185.021807-82.94081l31.900312-3.190031-79.750779-95.700935-25.520249 114.841122 35.090342-6.380063s66.990654 118.031153 169.071651 162.691589c102.080997 47.850467 204.161994 102.080997 223.302181 105.271028 6.380062 0 19.140187-6.380062 35.090343-12.760124V379.613707h118.031152V322.193146z m-153.121495-127.601246c-38.280374 0-70.180685-28.71028-70.180685-66.990654 0-38.280374 28.71028-66.990654 66.990654-66.990654h3.190031c38.280374 0 66.990654 28.71028 66.990654 66.990654 0 38.280374-28.71028 66.990654-66.990654 66.990654z" fill="#01579B" p-id="1174"></path><path d="M907.563863 504.024922c-35.090343-28.71028-86.130841-41.470405-156.311527-41.470405h-188.211838V1024h89.320873v-207.352025h86.130841c63.800623 0 114.841121-15.950156 156.311526-47.850467 41.470405-35.090343 60.610592-76.560748 60.610592-133.981309 3.190031-60.610592-12.760125-102.080997-47.850467-130.791277z m-156.311527 248.82243h-95.700934v-232.872274h76.560748c57.420561 0 89.320872 15.950156 108.461059 41.470405 15.950156 22.330218 22.330218 47.850467 22.330218 73.370716v6.380063c-3.190031 51.040498-25.520249 105.271028-111.651091 111.65109z" fill="#01579B" p-id="1175"></path></svg>