<?xml version="1.0" encoding="UTF-8"?>
<svg width="36px" height="35px" viewBox="0 0 36 35" version="1.1" xmlns="http://www.w3.org/2000/svg" xmlns:xlink="http://www.w3.org/1999/xlink">
    <!-- Generator: Sketch 50.2 (55047) - http://www.bohemiancoding.com/sketch -->
    <title>船闸</title>
    <desc>Created with Sketch.</desc>
    <defs></defs>
    <g id="index" stroke="none" stroke-width="1" fill="none" fill-rule="evenodd">
        <g id="7-要素首页" transform="translate(-370.000000, -359.000000)" fill="#01579B" fill-rule="nonzero">
            <g id="功能" transform="translate(21.751634, 133.437908)">
                <g id="row-3" transform="translate(64.418301, 222.535948)">
                    <g id="船闸" transform="translate(281.934641, 0.000000)">
                        <g transform="translate(0.000000, 0.418301)">
                            <rect id="Rectangle-path" opacity="0" x="0" y="0" width="40.1568627" height="40.1568627"></rect>
                            <path d="M11.1753629,26.9102242 L11.1753629,30.6498666 L18.1694858,25.3596946 L18.1694858,37.1494662 L21.6657246,37.1494662 L21.6657246,25.3596946 L28.6604495,30.6498666 L28.6604495,26.9102242 L19.9178861,20.297138 L11.1753629,26.9102242 Z M2.42621796,2.72681004 L2.42621796,30.5539969 L8.25685427,30.5539969 L8.25685427,27.6248932 L5.34139565,27.6248932 L5.34139565,5.65591369 L34.4946575,5.65591369 L34.4946575,27.6248531 L31.578637,27.6248531 L31.578637,30.5539567 L37.4095944,30.5539969 L37.4095944,2.72681004 L2.42621796,2.72681004 Z" id="Shape"></path>
                        </g>
                    </g>
                </g>
            </g>
        </g>
    </g>
</svg>