<?xml version="1.0" standalone="no"?><!DOCTYPE svg PUBLIC "-//W3C//DTD SVG 1.1//EN" "http://www.w3.org/Graphics/SVG/1.1/DTD/svg11.dtd"><svg t="1533779700124" class="icon" style="" viewBox="0 0 1024 1024" version="1.1" xmlns="http://www.w3.org/2000/svg" p-id="1666" xmlns:xlink="http://www.w3.org/1999/xlink" width="200" height="200"><defs><style type="text/css"></style></defs><path d="M512 46.006C254.91 46.006 46.506 254.41 46.506 511.5c0 257.09 208.404 465.495 465.494 465.495S977.494 768.59 977.494 511.5C977.494 254.41 769.09 46.006 512 46.006z m0 861.164c-218.519 0-395.67-177.151-395.67-395.67 0-218.518 177.151-395.67 395.67-395.67S907.67 292.981 907.67 511.5 730.519 907.17 512 907.17z" p-id="1667"></path><path d="M693.038 330.462c-13.66-13.638-35.753-13.638-49.391 0L512 462.114 380.353 330.462c-13.66-13.638-35.754-13.638-49.392 0-13.637 13.637-13.637 35.73 0 49.379L462.615 511.5 330.961 643.158c-13.637 13.638-13.637 35.731 0 49.38 13.66 13.637 35.754 13.637 49.392 0L512 560.886l131.647 131.652c13.66 13.637 35.754 13.637 49.391 0 13.637-13.638 13.637-35.73 0-49.38L561.384 511.5l131.654-131.659c13.637-13.638 13.637-35.731 0-49.379z" p-id="1668"></path></svg>