<?xml version="1.0" standalone="no"?><!DOCTYPE svg PUBLIC "-//W3C//DTD SVG 1.1//EN" "http://www.w3.org/Graphics/SVG/1.1/DTD/svg11.dtd"><svg t="1536718811758" class="icon" style="" viewBox="0 0 1024 1024" version="1.1" xmlns="http://www.w3.org/2000/svg" p-id="1749" xmlns:xlink="http://www.w3.org/1999/xlink" width="200" height="200"><defs><style type="text/css"></style></defs><path d="M829.866667 232.533333H170.666667c-12.8 0-21.333333-8.533333-21.333334-21.333333s8.533333-21.333333 21.333334-21.333333h659.2c12.8 0 21.333333 8.533333 21.333333 21.333333s-8.533333 21.333333-21.333333 21.333333z" fill="#1E1E1E" p-id="1750"></path><path d="M742.4 234.666667H258.133333l51.2-96c8.533333-14.933333 25.6-23.466667 42.666667-23.466667h294.4c19.2 0 36.266667 8.533333 42.666667 23.466667l53.333333 96zM330.666667 192h341.333333l-17.066667-34.133333s-2.133333-2.133333-6.4-2.133334H354.133333c-4.266667 0-6.4 2.133333-6.4 2.133334L330.666667 192zM731.733333 915.2H270.933333c-21.333333 0-38.4-17.066667-38.4-36.266667L192 315.733333c0-10.666667 2.133333-21.333333 10.666667-29.866666 6.4-8.533333 17.066667-12.8 29.866666-12.8h539.733334c10.666667 0 21.333333 4.266667 29.866666 12.8 6.4 8.533333 10.666667 19.2 10.666667 29.866666l-38.4 561.066667c-4.266667 21.333333-21.333333 38.4-42.666667 38.4z m-458.666666-42.666667h454.4l38.4-554.666666H234.666667l38.4 554.666666z" fill="#1E1E1E" p-id="1751"></path><path d="M582.4 832h-2.133333c-10.666667-2.133333-21.333333-10.666667-19.2-23.466667l40.533333-411.733333c2.133333-10.666667 10.666667-19.2 23.466667-19.2 10.666667 2.133333 21.333333 10.666667 19.2 23.466667l-40.533334 411.733333c0 10.666667-8.533333 19.2-21.333333 19.2zM418.133333 832c-10.666667 0-19.2-8.533333-21.333333-19.2l-40.533333-411.733333c-2.133333-10.666667 6.4-21.333333 19.2-23.466667 12.8-2.133333 21.333333 6.4 23.466666 19.2l40.533334 411.733333c2.133333 10.666667-6.4 21.333333-19.2 23.466667h-2.133334z" fill="#1E1E1E" p-id="1752"></path></svg>