<?xml version="1.0" encoding="UTF-8"?>
<svg width="37px" height="35px" viewBox="0 0 37 35" version="1.1" xmlns="http://www.w3.org/2000/svg" xmlns:xlink="http://www.w3.org/1999/xlink">
    <!-- Generator: Sketch 50.2 (55047) - http://www.bohemiancoding.com/sketch -->
    <title>分析</title>
    <desc>Created with Sketch.</desc>
    <defs></defs>
    <g id="index" stroke="none" stroke-width="1" fill="none" fill-rule="evenodd">
        <g id="1.2-最大级别" transform="translate(-238.000000, -260.000000)" fill-rule="nonzero">
            <g id="功能" transform="translate(21.751634, 133.437908)">
                <g id="Group-14" transform="translate(68.601307, 124.653595)">
                    <g id="分析" transform="translate(145.529412, 0.000000)">
                        <rect id="Rectangle-path" fill="#000000" opacity="0" x="0.0392156863" y="0" width="40.1568627" height="40.1568627"></rect>
                        <path d="M9.59653443,25.3373825 C9.25406796,25.3373825 8.91156133,25.2066802 8.65011667,24.9452355 C8.12722725,24.4223461 8.12722725,23.5752894 8.65011667,23.0524401 L16.2350629,15.4674939 C16.7579523,14.9446045 17.605009,14.9446045 18.1278583,15.4674939 C18.6507477,15.9903833 18.6507477,16.8374401 18.1278583,17.3602893 L10.5429121,24.9452355 C10.2815075,25.2066802 9.9390009,25.3373825 9.59653443,25.3373825 Z M21.1971749,21.7680905 C20.8547084,21.7680905 20.5122018,21.6373882 20.2507571,21.3759435 L16.2351029,17.3602492 C15.7122135,16.8373598 15.7122135,15.9903031 16.2351029,15.4674538 C16.7579924,14.9446045 17.6050491,14.9445644 18.1278984,15.4674538 L22.1435927,19.4831481 C22.6664821,20.0060375 22.6664821,20.8530943 22.1435927,21.3759435 C21.882148,21.6373882 21.5396414,21.7680905 21.1971749,21.7680905 Z M21.1971749,21.7680905 C20.8547084,21.7680905 20.5122018,21.6373882 20.2507571,21.3759435 C19.7278677,20.8530541 19.7278677,20.0059973 20.2507571,19.4831481 L29.0631892,10.670716 C29.5860786,10.1478266 30.4331354,10.1478266 30.9559846,10.670716 C31.478874,11.1936054 31.478874,12.0406622 30.9559846,12.5635114 L22.1435927,21.3759435 C21.882148,21.6373882 21.5396414,21.7680905 21.1971749,21.7680905 Z M32.5102463,15.2726644 C32.1586302,15.2726644 31.8161236,15.1334547 31.5638285,14.8805175 L26.4723384,9.78902737 C26.1690786,9.48576757 26.0291867,9.055056 26.0971663,8.63152761 C26.1645038,8.20799922 26.4311654,7.84197667 26.8148049,7.64851157 L37.1233106,2.43021176 C37.6357262,2.16680071 38.2631935,2.2668038 38.6736396,2.67793212 C39.0828015,3.08709408 39.1834467,3.71255486 38.922002,4.22890314 L33.7050265,14.5386931 C33.5102372,14.9216905 33.1455389,15.188352 32.7220105,15.2556896 C32.6514224,15.2674476 32.5808344,15.2726644 32.5102463,15.2726644 Z M29.6710331,9.2027331 L32.1507649,11.6811807 L34.6893267,6.66224502 L29.6710331,9.2027331 Z M30.4984664,36.5615667 L6.40369867,36.5615667 C4.1893042,36.5615667 2.38800435,34.7602669 2.38800435,32.5458724 L2.38800439,8.45174675 C2.38800439,6.23735227 4.1893042,4.43605243 6.40369871,4.43605243 L23.438978,4.43605243 C24.1782063,4.43605243 24.7775427,5.03538882 24.7775427,5.77461722 C24.7775427,6.51384561 24.1782064,7.113182 23.438978,7.113182 L6.40369867,7.11318196 C5.66579459,7.11318196 5.06513388,7.71384263 5.06513388,8.45174675 L5.06513388,32.5458724 C5.06513388,33.2837765 5.66579455,33.8844372 6.40369867,33.8844372 L30.4984664,33.8844372 C31.2370126,33.8844372 31.8370312,33.2837765 31.8370312,32.5458724 L31.8370312,18.1870405 C31.8370312,17.4478121 32.4357255,16.8484757 33.175596,16.8484757 C33.9154665,16.8484757 34.5141608,17.4478121 34.5141608,18.1870405 L34.5141608,32.5458724 C34.5141607,34.7602669 32.7128609,36.5615667 30.4984664,36.5615667 Z" id="Shape" fill="#01579B"></path>
                    </g>
                </g>
            </g>
        </g>
    </g>
</svg>