<?xml version="1.0" encoding="UTF-8"?>
<svg width="40px" height="39px" viewBox="0 0 40 39" version="1.1" xmlns="http://www.w3.org/2000/svg" xmlns:xlink="http://www.w3.org/1999/xlink">
    <!-- Generator: Sketch 50.2 (55047) - http://www.bohemiancoding.com/sketch -->
    <title>轨迹</title>
    <desc>Created with Sketch.</desc>
    <defs></defs>
    <g id="index" stroke="none" stroke-width="1" fill="none" fill-rule="evenodd">
        <g id="1.2-最大级别" transform="translate(-236.000000, -160.000000)" fill-rule="nonzero">
            <g id="功能" transform="translate(21.751634, 133.437908)">
                <g id="Group-13" transform="translate(68.601307, 25.934641)">
                    <g id="轨迹" transform="translate(145.529412, 0.000000)">
                        <rect id="Rectangle-path" fill="#000000" opacity="0" x="0.0392156863" y="0" width="40.1568627" height="40.1568627"></rect>
                        <path d="M20.3394088,17.5347638 C23.038909,17.5347638 25.2373474,15.4088475 25.2373474,12.7932573 C25.2373474,10.177667 23.038909,8.05175067 20.3394088,8.05175067 C17.6399087,8.05175067 15.4414703,10.177667 15.4414703,12.7932573 C15.4414703,15.4088475 17.6393094,17.5347638 20.3394088,17.5347638 Z M20.3394088,10.3802493 C21.6981493,10.3802493 22.7979678,11.4728756 22.7979678,12.8208276 C22.7979678,14.1669815 21.6981493,15.2614059 20.3394088,15.2614059 C18.9824665,15.2614059 17.8808498,14.1669816 17.8808499,12.8208276 C17.8808499,11.4728756 18.9824665,10.3802493 20.3394088,10.3802493 Z M15.5985016,24.707259 C15.6692256,24.8079508 15.7387509,24.8888639 15.7956898,24.9470015 C17.4481147,26.9470529 19.1137255,28.2776236 19.1856482,28.3339631 L20.3460018,29.2563723 L21.5015604,28.3267709 C21.5734832,28.2704314 23.2336997,26.9242775 24.8831279,24.9314182 C24.9394674,24.8714826 25.0113901,24.7881721 25.0815148,24.6856822 C27.4399813,21.61578 30.3720316,17.1667592 31.0349195,13.3152965 C31.1625824,12.4372397 31.1661785,11.9056108 31.1661785,11.8474732 C31.1883547,8.96936494 30.0399883,6.26447059 27.9344501,4.23984549 C25.8954405,2.27875212 23.197139,1.19931169 20.3394088,1.19931169 C17.4924671,1.19931169 14.8013579,2.27875212 12.7623483,4.23984549 C10.6454223,6.27525902 9.48986365,8.99393855 9.5120398,11.8930243 C9.5120398,11.9391747 9.51563592,12.4726017 9.63850396,13.3087035 C10.3499397,17.4298765 13.6595844,22.194758 15.5985016,24.707259 Z M20.3394088,4.19789055 C24.8028142,4.19789055 28.4564893,7.76405969 28.4241241,12.1950998 C28.4241241,12.1950998 28.4241241,12.5960691 28.3270284,13.2607551 C27.793002,16.3636219 25.2715107,20.2072929 23.2498824,22.8324729 C23.2336997,22.8636395 23.2013345,22.8936073 23.1857513,22.9097899 C21.778463,24.6227498 20.3394089,25.7813053 20.3394088,25.7813053 C20.3394088,25.7813053 18.8997553,24.6383331 17.4930664,22.9253731 C17.4774832,22.9097899 17.4451179,22.878024 17.428336,22.8480562 C15.4067076,20.2390588 12.8852163,16.3792052 12.3517893,13.2907229 C12.2546936,12.6278349 12.2546936,12.2250676 12.2546936,12.2250676 C12.221729,7.79462686 15.8760035,4.19789055 20.3394088,4.19789055 Z M8.66215278,38.9581504 L35.3910401,38.9581504 C37.6907696,38.9581504 39.5961229,37.2122259 39.5961229,35.0041978 C39.5961229,32.7961698 37.6907697,31.0508446 35.3910401,31.0508446 L4.84365467,31.0508446 C3.97998243,31.0508446 3.32069067,30.4466936 3.32069067,29.757434 C3.32069067,29.0675751 3.97998243,28.463424 4.84365467,28.463424 L9.61692714,28.463424 C9.97113707,28.4650169 10.3114547,28.3257514 10.5629312,28.0762984 C10.8144077,27.8268454 10.956418,27.487664 10.9576869,27.1334527 C10.9562591,26.7792909 10.8141981,26.4402021 10.5627563,26.1907834 C10.3113144,25.9413648 9.97108897,25.8020479 9.61692714,25.8034814 L4.84365467,25.8034814 C2.54452443,25.8034814 0.639171216,27.5488065 0.639171216,29.757434 C0.639171216,31.9654621 2.54452443,33.7107872 4.84365467,33.7107873 L35.3910401,33.7107873 C36.2553116,33.7107873 36.9146035,34.3143389 36.9146035,35.0041978 C36.9146035,35.6940568 36.2553117,36.2976084 35.3910401,36.2976084 L8.66215278,36.2976084 C7.92455095,36.2949551 7.32436647,36.8905785 7.32139302,37.6281791 C7.32469632,38.3655453 7.92478398,38.9608043 8.66215278,38.9581504 Z" id="Shape" fill="#01579B"></path>
                    </g>
                </g>
            </g>
        </g>
    </g>
</svg>