<?xml version="1.0" encoding="UTF-8"?>
<svg width="35px" height="36px" viewBox="0 0 35 36" version="1.1" xmlns="http://www.w3.org/2000/svg" xmlns:xlink="http://www.w3.org/1999/xlink">
    <!-- Generator: Sketch 50.2 (55047) - http://www.bohemiancoding.com/sketch -->
    <title>support</title>
    <desc>Created with Sketch.</desc>
    <defs></defs>
    <g id="index" stroke="none" stroke-width="1" fill="none" fill-rule="evenodd">
        <g id="7-要素首页" transform="translate(-234.000000, -358.000000)" fill="#01579B" fill-rule="nonzero">
            <g id="功能" transform="translate(21.751634, 133.437908)">
                <g id="row-3" transform="translate(64.418301, 222.535948)">
                    <g id="海事站所" transform="translate(135.529412, 0.836601)">
                        <g id="support" transform="translate(10.039216, 0.418301)">
                            <rect id="Rectangle-path" opacity="0" x="0" y="0" width="40.1568627" height="40.1568627"></rect>
                            <path d="M19.6601307,1.67320261 C10.1877908,1.67320261 2.50980392,9.35118954 2.50980392,18.8235294 C2.50980392,28.2958693 10.1877908,35.9738562 19.6601307,35.9738562 C29.1324706,35.9738562 36.8104575,28.2958693 36.8104575,18.8235294 C36.8104575,9.35118954 29.1324706,1.67320261 19.6601307,1.67320261 Z M13.3856209,18.8235294 C13.3856209,15.3579085 16.1945098,12.5490196 19.6601307,12.5490196 C23.1257516,12.5490196 25.9346405,15.3579085 25.9346405,18.8235294 C25.9346405,22.2891503 23.1257516,25.0980392 19.6601307,25.0980392 C16.1945098,25.0980392 13.3856209,22.2891503 13.3856209,18.8235294 Z M33.2240105,25.0980392 L27.608856,22.5879231 C28.0048743,21.5574313 28.2236465,20.4274966 28.2236465,19.2418301 C28.2236465,18.0561635 28.0048743,16.9262288 27.6078431,15.8957371 L31.4728196,14.1680515 L33.2229977,13.3856209 C33.9178021,15.189801 34.3006536,17.1677332 34.3006536,19.2418301 C34.3006536,21.3159269 33.9167893,23.2938591 33.2240105,25.0980392 Z M25.9346405,5.25964962 L23.4245244,10.8748042 C22.3940326,10.4787859 21.2640979,10.2600136 20.0784314,10.2600136 C18.8927648,10.2600136 17.7628301,10.4787859 16.7323384,10.875817 L15.5554141,8.24244726 L14.2222222,5.25964962 C16.0264024,4.56687082 18.0043345,4.18300654 20.0784314,4.18300654 C22.1525282,4.18300654 24.1304604,4.56687082 25.9346405,5.25964962 Z M6.09625093,13.3856209 L9.07904857,14.7188128 L11.7124183,15.8957371 C11.3153872,16.9262288 11.0966149,18.0561635 11.0966149,19.2418301 C11.0966149,20.4274966 11.3153872,21.5574313 11.7124183,22.5879231 L6.09726376,25.0980392 C5.40347212,23.2938591 5.01960784,21.3159269 5.01960784,19.2418301 C5.01960784,17.1677332 5.40347212,15.189801 6.09625093,13.3856209 Z M14.2222222,32.3874092 L15.0046529,30.6372312 L16.7323384,26.7722547 C17.7628301,27.168273 18.8927648,27.3870452 20.0784314,27.3870452 C21.2640979,27.3870452 22.3940326,27.168273 23.4245244,26.7712418 L25.9346405,32.3863964 C24.1304604,33.080188 22.1525282,33.4640523 20.0784314,33.4640523 C18.0043345,33.4640523 16.0264024,33.080188 14.2222222,32.3874092 Z" id="Shape"></path>
                        </g>
                    </g>
                </g>
            </g>
        </g>
    </g>
</svg>