<?xml version="1.0" encoding="UTF-8"?>
<svg width="36px" height="36px" viewBox="0 0 36 36" version="1.1" xmlns="http://www.w3.org/2000/svg" xmlns:xlink="http://www.w3.org/1999/xlink">
    <!-- Generator: Sketch 50.2 (55047) - http://www.bohemiancoding.com/sketch -->
    <title>地图</title>
    <desc>Created with Sketch.</desc>
    <defs></defs>
    <g id="index" stroke="none" stroke-width="1" fill="none" fill-rule="evenodd">
        <g id="7-要素首页" transform="translate(-234.000000, -161.000000)" fill="#01579B" fill-rule="nonzero">
            <g id="功能" transform="translate(21.751634, 133.437908)">
                <g id="row-1" transform="translate(64.418301, 25.098039)">
                    <g id="航标" transform="translate(135.529412, 0.000000)">
                        <g id="地图" transform="translate(10.039216, 0.418301)">
                            <rect id="Rectangle-path" opacity="0" x="0" y="0" width="40.1568627" height="40.1568627"></rect>
                            <path d="M20.104315,2.51063161 C14.1849501,2.51063161 10.0338584,6.62604812 10.0338584,12.5436874 C10.0338584,18.1328655 11.536754,24.0100139 17.9865928,30.4598125 C19.2469449,31.7201646 20.104315,32.6097588 20.104315,32.6097588 C20.104315,32.6097588 20.9618857,31.7843721 22.2864452,30.4598125 C28.7362438,24.0100139 30.0999298,18.6870158 30.0999298,12.5436874 C30.0999298,6.62600796 26.0223556,2.51063161 20.104315,2.51063161 Z M20.5128349,28.6861621 C20.3824536,28.8165433 20.2566071,28.942109 20.1356162,29.0625381 C20.0151068,28.9414268 19.8897819,28.8157809 19.7602434,28.6862022 C16.9839936,25.9099524 15.0744641,23.1513196 13.9225022,20.2526743 C12.9807796,17.8829781 12.5421625,15.4333837 12.5421625,12.5436472 C12.5421625,10.3246378 13.2601222,8.43750067 14.6183906,7.08617467 C15.9778228,5.73372506 17.8748318,5.01885537 20.1043552,5.01885537 C22.323204,5.01885537 24.2038803,5.73051467 25.5430872,7.07686459 C26.8832973,8.42425788 27.591706,10.3146455 27.591706,12.5436472 C27.5916659,18.1393263 26.40752,22.7915572 20.5128349,28.6861621 Z M20.0669142,7.52715949 C17.2963628,7.52715949 15.0503863,9.773136 15.0503863,12.5436874 C15.0503863,15.3142387 17.2963628,17.5602153 20.0669142,17.5602153 C22.8374655,17.5602153 25.083442,15.3142387 25.083442,12.5436874 C25.083442,9.773136 22.8374655,7.52715949 20.0669142,7.52715949 Z M20.0669142,15.0519112 C18.6816385,15.0519112 17.5586502,13.9289229 17.5586502,12.5436473 C17.5586502,11.1583716 18.6816385,10.0353833 20.0669142,10.0353833 C21.4521898,10.0353833 22.5751781,11.1583716 22.5751781,12.5436473 C22.5751781,13.9289229 21.4521898,15.0519112 20.0669142,15.0519112 Z M37.6245611,36.0941766 L37.6247216,36.0942167 L37.6247618,35.9363065 L35.0975566,25.8759225 C35.0081076,25.4249855 34.6103826,25.084967 34.1331607,25.084967 L28.5750029,25.084967 C28.0319283,25.084967 27.5916659,25.5252294 27.5916659,26.068304 L27.5916659,26.6098938 C27.5916659,27.1529685 28.0319283,27.5932309 28.5750029,27.5932309 L32.5892124,27.5932309 L34.4753062,35.1180227 L5.658482,35.1180228 L7.54457576,27.5932309 L11.5587853,27.5932309 C12.1018599,27.5932309 12.5421223,27.1529685 12.5421223,26.6098939 L12.5421223,26.0683041 C12.5421223,25.5252295 12.1018599,25.084967 11.5587853,25.084967 L6.00066753,25.084967 C5.52344569,25.084967 5.12572067,25.4249855 5.03627165,25.8759225 L2.50906655,35.9363065 L2.50906655,36.0670088 L2.50994941,36.0667279 C2.50954812,36.0782451 2.50906655,36.0897222 2.50906655,36.1013197 L2.50906655,36.6429095 C2.50906655,37.1859841 2.94932898,37.6262465 3.49240361,37.6262465 L36.6413846,37.6262465 C37.1844592,37.6262465 37.6247216,37.1859841 37.6247216,36.6429095 L37.6247216,36.1013197 C37.6247216,36.098952 37.6245611,36.0965844 37.6245611,36.0941766 Z" id="Shape"></path>
                        </g>
                    </g>
                </g>
            </g>
        </g>
    </g>
</svg>