<?xml version="1.0" encoding="UTF-8"?>
<svg width="41px" height="38px" viewBox="0 0 41 38" version="1.1" xmlns="http://www.w3.org/2000/svg" xmlns:xlink="http://www.w3.org/1999/xlink">
    <!-- Generator: Sketch 50.2 (55047) - http://www.bohemiancoding.com/sketch -->
    <title>建筑</title>
    <desc>Created with Sketch.</desc>
    <defs></defs>
    <g id="index" stroke="none" stroke-width="1" fill="none" fill-rule="evenodd">
        <g id="7-要素首页" transform="translate(-231.000000, -261.000000)" fill="#01579B" fill-rule="nonzero">
            <g id="功能" transform="translate(21.751634, 133.437908)">
                <g id="row-2" transform="translate(64.418301, 123.816993)">
                    <g id="跨河建筑物" transform="translate(128.000000, 0.836601)">
                        <g id="建筑" transform="translate(17.568627, 0.418301)">
                            <rect id="Rectangle-path" opacity="0" x="0" y="0" width="40.1568627" height="40.1568627"></rect>
                            <path d="M38.9019608,37.6470588 L36.3921569,37.6470588 L36.3921569,15.0588235 C36.3921569,11.545098 34.3843137,10.0392157 33.1294118,9.78823529 L25.0980392,7.27843137 L25.0980392,4.51764706 C25.0980392,4.01568627 24.8470588,3.76470588 24.5960784,3.51372549 C24.345098,3.2627451 23.8431373,3.2627451 23.5921569,3.2627451 L6.77647059,8.03137255 C6.77647059,8.03137255 3.76470588,8.78431373 3.76470588,12.8 L3.76470588,37.6470588 L1.25490196,37.6470588 C0.501960784,37.6470588 0,38.1490196 0,38.9019608 C0,39.654902 0.501960784,40.1568627 1.25490196,40.1568627 L38.9019608,40.1568627 C39.654902,40.1568627 40.1568627,39.654902 40.1568627,38.9019608 C40.1568627,38.1490196 39.654902,37.6470588 38.9019608,37.6470588 Z M22.5882353,37.6470588 L6.2745098,37.6470588 L6.2745098,12.8 C6.2745098,11.0431373 7.27843137,10.5411765 7.52941176,10.5411765 L22.5882353,6.2745098 L22.5882353,37.6470588 Z M33.8823529,37.6470588 L25.0980392,37.6470588 L25.0980392,9.78823529 L32.3764706,12.2980392 C32.3764706,12.2980392 32.627451,12.2980392 32.627451,12.2980392 C32.8784314,12.2980392 33.8823529,12.5490196 33.8823529,15.0588235 L33.8823529,37.6470588 Z M13.3019608,12.2980392 L10.7921569,12.2980392 L10.7921569,14.8078431 L13.3019608,14.8078431 L13.3019608,12.2980392 Z M19.0745098,12.2980392 L16.5647059,12.2980392 L16.5647059,14.8078431 L19.0745098,14.8078431 L19.0745098,12.2980392 Z M13.3019608,16.3137255 L10.7921569,16.3137255 L10.7921569,18.8235294 L13.3019608,18.8235294 L13.3019608,16.3137255 Z M19.0745098,16.3137255 L16.5647059,16.3137255 L16.5647059,18.8235294 L19.0745098,18.8235294 L19.0745098,16.3137255 Z M13.3019608,20.5803922 L10.7921569,20.5803922 L10.7921569,23.0901961 L13.3019608,23.0901961 L13.3019608,20.5803922 Z M19.0745098,20.5803922 L16.5647059,20.5803922 L16.5647059,23.0901961 L19.0745098,23.0901961 L19.0745098,20.5803922 Z M13.3019608,24.8470588 L10.7921569,24.8470588 L10.7921569,27.3568627 L13.3019608,27.3568627 L13.3019608,24.8470588 Z M19.0745098,24.8470588 L16.5647059,24.8470588 L16.5647059,27.3568627 L19.0745098,27.3568627 L19.0745098,24.8470588 Z M13.3019608,28.8627451 L10.7921569,28.8627451 L10.7921569,31.372549 L13.3019608,31.372549 L13.3019608,28.8627451 Z M19.0745098,28.8627451 L16.5647059,28.8627451 L16.5647059,31.372549 L19.0745098,31.372549 L19.0745098,28.8627451 Z M13.3019608,33.1294118 L10.7921569,33.1294118 L10.7921569,35.6392157 L13.3019608,35.6392157 L13.3019608,33.1294118 Z M19.0745098,33.1294118 L16.5647059,33.1294118 L16.5647059,35.6392157 L19.0745098,35.6392157 L19.0745098,33.1294118 Z M28.3607843,18.8235294 L30.8705882,18.8235294 L30.8705882,16.3137255 L28.3607843,16.3137255 L28.3607843,18.8235294 Z M28.3607843,23.0901961 L30.8705882,23.0901961 L30.8705882,20.5803922 L28.3607843,20.5803922 L28.3607843,23.0901961 Z M28.3607843,27.3568627 L30.8705882,27.3568627 L30.8705882,24.8470588 L28.3607843,24.8470588 L28.3607843,27.3568627 Z M28.3607843,31.372549 L30.8705882,31.372549 L30.8705882,28.8627451 L28.3607843,28.8627451 L28.3607843,31.372549 Z M28.3607843,35.6392157 L30.8705882,35.6392157 L30.8705882,33.1294118 L28.3607843,33.1294118 L28.3607843,35.6392157 Z" id="Shape"></path>
                        </g>
                    </g>
                </g>
            </g>
        </g>
    </g>
</svg>