<?xml version="1.0" encoding="UTF-8"?>
<svg width="39px" height="40px" viewBox="0 0 39 40" version="1.1" xmlns="http://www.w3.org/2000/svg" xmlns:xlink="http://www.w3.org/1999/xlink">
    <!-- Generator: Sketch 50.2 (55047) - http://www.bohemiancoding.com/sketch -->
    <title>switches-o</title>
    <desc>Created with Sketch.</desc>
    <defs></defs>
    <g id="index" stroke="none" stroke-width="1" fill="none" fill-rule="evenodd">
        <g id="7-要素首页" transform="translate(-97.000000, -455.000000)" fill="#01579B" fill-rule="nonzero">
            <g id="功能" transform="translate(21.751634, 133.437908)">
                <g id="row4" transform="translate(74.457516, 319.581699)">
                    <g id="截面" transform="translate(0.000000, 1.673203)">
                        <g id="switches-o" transform="translate(0.000000, 0.418301)">
                            <rect id="Rectangle-path" opacity="0" x="0" y="0" width="40.1568627" height="40.1568627"></rect>
                            <path d="M27.9449429,18.4052288 L12.2116616,18.4052288 C11.4732364,18.4052288 10.875817,17.8008465 10.875817,17.053815 C10.875817,16.3067836 11.4732364,15.7024013 12.2116616,15.7024013 L24.5793565,15.7024013 L23.7221896,14.8840452 C23.184141,14.3735111 23.161877,13.5176158 23.6665294,12.9732964 C24.1711818,12.4289769 25.0172167,12.4064534 25.5552653,12.9169875 L28.8614807,16.0702862 C29.2585234,16.4494328 29.3883972,17.0387993 29.1880205,17.5530873 C28.9839332,18.0673753 28.4941235,18.4052288 27.9449429,18.4052288 Z M15.5181353,27.6078431 C15.1878849,27.6078431 14.8613451,27.4877158 14.6015975,27.2399531 L11.295382,24.0866097 C10.8983393,23.7074577 10.7684655,23.1180828 10.9688422,22.6037875 C11.1729296,22.0894922 11.6627393,21.751634 12.2119199,21.751634 L27.9452011,21.751634 C28.6836263,21.751634 29.2810458,22.3560248 29.2810458,23.1030669 C29.2810458,23.8501089 28.6836263,24.4544997 27.9452011,24.4544997 L15.5775062,24.4544997 L16.4346732,25.2728674 C16.9727217,25.7834087 16.9949858,26.6393162 16.4903334,27.1836434 C16.2305858,27.4651919 15.8743606,27.6078431 15.5181353,27.6078431 Z M20.0784314,39.3202614 C17.4815359,39.3202614 14.9598039,38.8129085 12.5883987,37.805719 C10.295915,36.8398693 8.24019608,35.4493464 6.47385621,33.6830065 C4.70751634,31.9166667 3.31699346,29.8609477 2.35114379,27.5684641 C1.34395425,25.1970588 0.836601307,22.6753268 0.836601307,20.0784314 C0.836601307,17.4815359 1.34395425,14.9598039 2.35114379,12.5883987 C3.31699346,10.295915 4.70751634,8.24019608 6.47385621,6.47385621 C8.24019608,4.70751634 10.295915,3.31699346 12.5883987,2.35114379 C14.9598039,1.34395425 17.4815359,0.836601307 20.0784314,0.836601307 C22.6753268,0.836601307 25.1970588,1.34395425 27.5684641,2.35114379 C29.8609477,3.31699346 31.9166667,4.70751634 33.6830065,6.47385621 C35.4493464,8.24019608 36.8361111,10.2996732 37.805719,12.5883987 C38.8091503,14.9598039 39.3202614,17.4815359 39.3202614,20.0784314 C39.3202614,22.6753268 38.8129085,25.1970588 37.805719,27.5684641 C36.8398693,29.8609477 35.4493464,31.9166667 33.6830065,33.6830065 C31.9166667,35.4493464 29.8571895,36.8361111 27.5684641,37.805719 C25.1970588,38.8129085 22.6753268,39.3202614 20.0784314,39.3202614 Z M20.0784314,3.34640523 C10.8530006,3.34640523 3.34640523,10.8530006 3.34640523,20.0784314 C3.34640523,29.3038622 10.8530006,36.8104575 20.0784314,36.8104575 C29.3038622,36.8104575 36.8104575,29.3038622 36.8104575,20.0784314 C36.8104575,10.8530006 29.3038622,3.34640523 20.0784314,3.34640523 Z" id="Shape"></path>
                        </g>
                    </g>
                </g>
            </g>
        </g>
    </g>
</svg>