<?xml version="1.0" encoding="UTF-8"?>
<svg width="35px" height="25px" viewBox="0 0 35 25" version="1.1" xmlns="http://www.w3.org/2000/svg" xmlns:xlink="http://www.w3.org/1999/xlink">
    <!-- Generator: Sketch 50.2 (55047) - http://www.bohemiancoding.com/sketch -->
    <title>video-camera</title>
    <desc>Created with Sketch.</desc>
    <defs></defs>
    <g id="index" stroke="none" stroke-width="1" fill="none" fill-rule="evenodd">
        <g id="7-要素首页" transform="translate(-99.000000, -168.000000)" fill="#01579B" fill-rule="nonzero">
            <g id="功能" transform="translate(21.751634, 133.437908)">
                <g id="row-1" transform="translate(64.418301, 25.098039)">
                    <g id="视频" transform="translate(0.000000, 1.673203)">
                        <g id="video-camera" transform="translate(10.039216, 0.418301)">
                            <rect id="Rectangle-path" opacity="0" x="0" y="0" width="40.1568627" height="40.1568627"></rect>
                            <path d="M6.69281047,28.4444444 L25.0980392,28.4444444 C26.0221235,28.4444444 26.7712418,29.1935628 26.7712418,30.1176471 C26.7712418,31.0417314 26.0221235,31.7908497 25.0980392,31.7908497 L5.01960784,31.7908497 C4.09552355,31.7908497 3.34640522,31.0417314 3.34640522,30.1176471 L3.34640522,10.0392157 C3.34640522,9.11513139 4.09552355,8.36601306 5.01960784,8.36601306 L25.0980392,8.36601306 C26.0221235,8.36601306 26.7712418,9.11513139 26.7712418,10.0392157 L26.7712418,13.6048105 L34.2086275,8.6471111 C34.7220642,8.30455263 35.3823934,8.27247788 35.9266134,8.56366185 C36.4708335,8.85484582 36.8105499,9.42199324 36.8104575,10.0392157 L36.8104575,30.1176471 C36.8105499,30.7348695 36.4708335,31.3020169 35.9266134,31.5932009 C35.3823934,31.8843849 34.7220642,31.8523101 34.2086275,31.5097516 L24.1694118,24.8169412 C23.6720607,24.4851745 23.3894847,23.9132759 23.4281275,23.3166739 C23.4667703,22.7200719 23.8207611,22.1894047 24.356755,21.9245693 C24.8927489,21.659734 25.5293156,21.7009654 26.0266667,22.032732 L33.4640523,26.9887582 L33.4640523,13.1681046 L26.0266667,18.1258039 C25.5129802,18.4685296 24.8522817,18.5004571 24.3079423,18.2088592 C23.7636029,17.9172613 23.4241264,17.3495488 23.4248366,16.7320262 L23.4248366,11.7124183 L6.69281047,11.7124183 L6.69281047,28.4444444 Z" id="Shape"></path>
                        </g>
                    </g>
                </g>
            </g>
        </g>
    </g>
</svg>