<?xml version="1.0" encoding="UTF-8"?>
<svg width="34px" height="34px" viewBox="0 0 34 34" version="1.1" xmlns="http://www.w3.org/2000/svg" xmlns:xlink="http://www.w3.org/1999/xlink">
    <!-- Generator: Sketch 50.2 (55047) - http://www.bohemiancoding.com/sketch -->
    <title>停车位</title>
    <desc>Created with Sketch.</desc>
    <defs></defs>
    <g id="index" stroke="none" stroke-width="1" fill="none" fill-rule="evenodd">
        <g id="7-要素首页" transform="translate(-372.000000, -262.000000)" fill="#01579B" fill-rule="nonzero">
            <g id="功能" transform="translate(21.751634, 133.437908)">
                <g id="row-2" transform="translate(64.418301, 123.816993)">
                    <g id="锚泊区" transform="translate(280.261438, 0.000000)">
                        <g id="停车位" transform="translate(2.509804, 0.418301)">
                            <rect id="Rectangle-path" opacity="0" x="0" y="0" width="40.1568627" height="40.1568627"></rect>
                            <path d="M20.0784314,4.81882353 C11.2198275,4.81882353 4.01568627,12.0229647 4.01568627,20.8815686 C4.01568627,29.7401725 11.2198275,36.9443137 20.0784314,36.9443137 C28.9370353,36.9443137 36.1411765,29.7401725 36.1411765,20.8815686 C36.1411765,12.0229647 28.9370353,4.81882353 20.0784314,4.81882353 Z M20.0784314,34.9364706 C12.3281569,34.9364706 6.02352941,28.6318431 6.02352941,20.8815686 C6.02352941,13.1312941 12.3281569,6.82666667 20.0784314,6.82666667 C27.8287059,6.82666667 34.1333333,13.1312941 34.1333333,20.8815686 C34.1333333,28.6318431 27.8287059,34.9364706 20.0784314,34.9364706 Z M21.8051765,12.9706667 L15.2997647,12.9706667 L15.2997647,29.0334118 L17.3076078,29.0334118 L17.3076078,23.0098824 L21.8051765,23.0098824 C24.7366275,23.0098824 26.290698,20.8655059 26.4633725,17.8176 C26.3469176,14.9985882 24.7968627,12.9706667 21.8051765,12.9706667 Z M21.030149,21.0020392 L17.3076078,21.0020392 L17.3076078,14.9785098 L21.1144784,14.9785098 C23.2427922,14.9785098 24.306949,16.1792 24.306949,17.9059451 C24.306949,19.801349 23.2146824,21.0020392 21.030149,21.0020392 Z" id="Shape" stroke="#01579B" stroke-width="0.836601307"></path>
                        </g>
                    </g>
                </g>
            </g>
        </g>
    </g>
</svg>