<?xml version="1.0" encoding="UTF-8"?>
<svg width="36px" height="35px" viewBox="0 0 36 35" version="1.1" xmlns="http://www.w3.org/2000/svg" xmlns:xlink="http://www.w3.org/1999/xlink">
    <!-- Generator: Sketch 50.2 (55047) - http://www.bohemiancoding.com/sketch -->
    <title>锚</title>
    <desc>Created with Sketch.</desc>
    <defs></defs>
    <g id="index" stroke="none" stroke-width="1" fill="none" fill-rule="evenodd">
        <g id="7-要素首页" transform="translate(-98.000000, -262.000000)" fill="#01579B" fill-rule="nonzero">
            <g id="功能" transform="translate(21.751634, 133.437908)">
                <g id="row-2" transform="translate(64.418301, 123.816993)">
                    <g id="码头岸线" transform="translate(0.000000, 1.673203)">
                        <g id="锚" transform="translate(10.039216, 0.418301)">
                            <rect id="Rectangle-path" opacity="0" x="0" y="0" width="40.1568627" height="40.1568627"></rect>
                            <path d="M34.9364706,30.5443137 C31.7163922,34.9088627 26.1044706,37.6545882 20.083451,37.6043922 C14.0624314,37.657098 8.4505098,34.9113725 5.22792157,30.5443137 L2.55498039,33.2172549 L2.55498039,24.4530196 L11.3192157,24.4530196 L8.90980392,26.8624314 C10.8682226,30.1199992 14.1469259,32.3644315 17.8923922,33.011451 L17.8923922,19.7596863 C14.0291436,18.770446 11.3250972,15.2920449 11.3192157,11.3041569 C11.4331077,6.5455027 15.3234341,2.74717192 20.083451,2.74717192 C24.8434679,2.74717192 28.7337943,6.5455027 28.8476863,11.3041569 C28.8409183,15.2917401 26.1372443,18.769662 22.2745098,19.7596863 L22.2745098,33.011451 C26.0202333,32.3650649 29.2991769,30.1204682 31.257098,26.8624314 L28.8476863,24.4530196 L37.6144314,24.4530196 L37.6144314,33.2172549 L34.9364706,30.5443137 Z M24.4655686,11.3066667 C24.4655686,8.88579686 22.5030659,6.92329412 20.0821961,6.92329412 C17.6613263,6.92329412 15.6988235,8.88579686 15.6988235,11.3066667 C15.6988235,13.7275365 17.6613263,15.6900392 20.0821961,15.6900392 C22.5030659,15.6900392 24.4655686,13.7275365 24.4655686,11.3066667 Z" id="Shape"></path>
                        </g>
                    </g>
                </g>
            </g>
        </g>
    </g>
</svg>