<?xml version="1.0" encoding="UTF-8"?>
<svg width="41px" height="33px" viewBox="0 0 41 33" version="1.1" xmlns="http://www.w3.org/2000/svg" xmlns:xlink="http://www.w3.org/1999/xlink">
    <!-- Generator: Sketch 50.2 (55047) - http://www.bohemiancoding.com/sketch -->
    <title>区域</title>
    <desc>Created with Sketch.</desc>
    <defs></defs>
    <g id="index" stroke="none" stroke-width="1" fill="none" fill-rule="evenodd">
        <g id="1.2-最大级别" transform="translate(-372.000000, -166.000000)" fill-rule="nonzero">
            <g id="功能" transform="translate(21.751634, 133.437908)">
                <g id="Group-13" transform="translate(68.601307, 25.934641)">
                    <g id="区域" transform="translate(281.895425, 4.183007)">
                        <rect id="Rectangle-path" fill="#000000" opacity="0" x="0.0392156863" y="0" width="40.1568627" height="40.1568627"></rect>
                        <path d="M35.1764706,30.1176471 L35.1764706,27.2539608 L35.1915294,27.2464314 L35.1764706,27.2112941 L35.1764706,15.4704314 L35.1764706,15.4528627 L35.1764706,14.8178824 L35.1764706,14.7300392 L35.1764706,12.313098 L35.1764706,9.98901961 L35.1764706,9.97145098 L35.1764706,8.5785098 L35.1764706,7.52941176 L34.7548235,7.52941176 L34.5339608,7.52941176 L33.3719216,7.52941176 L26.5301961,7.52941176 L23.7894902,7.52941176 L21.0487843,7.52941176 L18.3080784,7.52941176 L12.8241569,7.52941176 L10.083451,7.52941176 L5.05882353,7.52941176 L5.05882353,20.4774902 L5.05882353,23.2181961 L5.05882353,25.958902 L5.05882353,27.2916078 L5.05882353,30.1176471 L20.0072157,30.1176471 L35.1764706,30.1176471 Z M32.6666667,21.5868235 L30.8144314,17.3703529 L32.6666667,16.5571765 L32.6666667,21.5868235 Z M28.8191373,10.0392157 L27.8252549,10.4759216 L27.6345098,10.0392157 L28.8191373,10.0392157 Z M19.4098824,10.0392157 L20.9308235,13.5052549 L16.3353725,15.5231373 L13.9284706,10.0392157 L19.4098824,10.0392157 Z M7.56862745,14.2858039 L9.44345098,18.5524706 L7.56862745,19.3731765 L7.56862745,14.2858039 Z M16.1621961,27.6078431 L13.7603137,22.1364706 L11.4613333,23.1479216 L13.4214902,27.6078431 L7.56862745,27.6078431 L7.56862745,27.5978039 L12.4702745,25.4443922 L11.4613333,23.1479216 L7.56862745,24.857098 L7.56862745,22.1163922 L12.7488627,19.84 L8.44454902,10.0392157 L11.1852549,10.0392157 L15.0478431,18.8310588 L17.3468235,17.8221176 L24.2412549,14.7927843 L23.2298039,12.4938039 L22.1505882,10.0392157 L24.8912941,10.0392157 L26.5176471,13.7838431 L32.6666667,11.0732549 L32.6666667,13.8139608 L27.5265882,16.0803137 L32.6089412,27.6078431 L29.8682353,27.6078431 L25.2476863,17.0917647 L18.3557647,20.1185882 L16.0567843,21.1275294 L18.902902,27.6078431 L16.1621961,27.6078431 Z M23.9601569,20.3971765 L27.1275294,27.6078431 L21.6436078,27.6078431 L19.3647059,22.4175686 L23.9601569,20.3971765 Z M0.0392156863,2.50980392 L0.0392156863,35.1372549 L40.1960784,35.1372549 L40.1960784,2.50980392 L0.0392156863,2.50980392 Z M37.6862745,32.627451 L2.54901961,32.627451 L2.54901961,5.01960784 L37.6862745,5.01960784 L37.6862745,32.627451 Z" id="Shape" fill="#01579B"></path>
                    </g>
                </g>
            </g>
        </g>
    </g>
</svg>