<?xml version="1.0" encoding="UTF-8"?>
<svg width="30px" height="36px" viewBox="0 0 30 36" version="1.1" xmlns="http://www.w3.org/2000/svg" xmlns:xlink="http://www.w3.org/1999/xlink">
    <!-- Generator: Sketch 50.2 (55047) - http://www.bohemiancoding.com/sketch -->
    <title>drops</title>
    <desc>Created with Sketch.</desc>
    <defs></defs>
    <g id="index" stroke="none" stroke-width="1" fill="none" fill-rule="evenodd">
        <g id="7-要素首页" transform="translate(-373.000000, -165.000000)" fill-rule="nonzero">
            <g id="功能" transform="translate(21.751634, 133.437908)">
                <g id="row-1" transform="translate(64.418301, 25.098039)">
                    <g id="水文" transform="translate(271.895425, 5.019608)">
                        <g id="drops" transform="translate(10.039216, 0.418301)">
                            <rect id="Rectangle-path" fill="#01579B" opacity="0" x="0" y="0" width="40.1568627" height="40.1568627"></rect>
                            <path d="M25.7254902,25.7254902 C25.7254902,30.9240784 21.5123137,35.1372549 16.3137255,35.1372549 C11.1151373,35.1372549 6.90196078,30.9240784 6.90196078,25.7254902 C6.90196078,20.526902 14.4313725,10.6666667 16.3137255,5.01960784 C18.1960784,10.6666667 25.7254902,20.526902 25.7254902,25.7254902 Z M33.254902,12.7843137 C33.254902,14.7327843 31.5673725,16.3137255 29.4901961,16.3137255 C27.4130196,16.3137255 25.7254902,14.7327843 25.7254902,12.7843137 C25.7254902,10.8358431 28.736549,7.1372549 29.4901961,5.01960784 C30.2438431,7.1372549 33.254902,10.8358431 33.254902,12.7843137 Z" id="Shape" stroke="#01579B" stroke-width="2.50980392"></path>
                        </g>
                    </g>
                </g>
            </g>
        </g>
    </g>
</svg>