<?xml version="1.0" encoding="UTF-8"?>
<svg width="37px" height="36px" viewBox="0 0 37 36" version="1.1" xmlns="http://www.w3.org/2000/svg" xmlns:xlink="http://www.w3.org/1999/xlink">
    <!-- Generator: Sketch 50.2 (55047) - http://www.bohemiancoding.com/sketch -->
    <title>水域</title>
    <desc>Created with Sketch.</desc>
    <defs></defs>
    <g id="index" stroke="none" stroke-width="1" fill="none" fill-rule="evenodd">
        <g id="1.2-最大级别" transform="translate(-102.000000, -261.000000)" fill-rule="nonzero">
            <g id="功能" transform="translate(21.751634, 133.437908)">
                <g id="Group-14" transform="translate(68.601307, 124.653595)">
                    <g id="水域" transform="translate(10.000000, 0.836601)">
                        <rect id="Rectangle-path" fill="#000000" opacity="0" x="0.0392156863" y="0" width="40.1568627" height="40.1568627"></rect>
                        <path d="M27.2280784,24.2903922 L32.8452549,18.4567059 C33.4623137,17.8158431 33.0997647,16.7452549 32.2204706,16.6116863 L24.5209804,15.4422353 L21.1317255,8.26396078 C20.934,7.84505882 20.5373725,7.63568627 20.1407451,7.63568627 C19.7441176,7.63568627 19.3475294,7.84509804 19.1498039,8.26388235 L15.760549,15.4421569 L8.08580392,16.6078431 C7.20176471,16.7421176 6.84180392,17.8220392 7.46831373,18.4603529 L13.053451,24.1510196 L11.7994118,32.1309804 C11.6885098,32.8366275 12.2504314,33.4003922 12.8825882,33.4003922 C13.0582745,33.4003922 13.2394118,33.3568235 13.4129804,33.2606667 L20.1407451,29.533451 L26.9359216,33.2602745 C27.1085098,33.3549412 27.2881569,33.3978039 27.4624314,33.3978039 C28.0987843,33.3978039 28.6627451,32.826 28.5435294,32.1168235 L27.2280784,24.2903922 Z M24.9076863,24.6803137 L25.7934118,29.9500392 L21.2722353,27.4703922 L20.1350588,26.8467059 L19.000549,27.4752549 L14.523098,29.9558039 L15.3778824,24.5163529 L15.5615686,23.347451 L14.7327451,22.5029412 L10.8680784,18.5652549 L16.1139216,17.7684706 L17.3531373,17.5802353 L17.8882745,16.4467843 L20.1407451,11.6760392 L22.3932549,16.4467451 L22.9283922,17.5801961 L24.1676078,17.7684314 L29.466549,18.5732941 L25.5331373,22.6582745 L24.7112941,23.5118039 L24.9076863,24.6803137 Z M35.3688235,2.62745098 L4.93745098,2.62745098 C3.64333333,2.62745098 2.5845098,3.68627451 2.5845098,4.98039216 L2.5845098,35.4117647 C2.5845098,36.7058824 3.64333333,37.7647059 4.93745098,37.7647059 L9.56862745,37.7647059 C10.2156863,37.7647059 10.745098,37.2352941 10.745098,36.5882353 C10.745098,35.9923922 10.2960784,35.4966667 9.71972549,35.4218824 L9.72176471,35.4117647 L4.93745098,35.4117647 L4.93745098,4.98039216 L35.3688235,4.98039216 L35.3688235,35.4117647 L30.6629412,35.4117647 L30.6639608,35.4179216 C30.072902,35.4787059 29.6078431,35.9818039 29.6078431,36.5882353 C29.6078431,37.2352941 30.1372549,37.7647059 30.7843137,37.7647059 L35.3688235,37.7647059 C36.6629412,37.7647059 37.7217647,36.7058824 37.7217647,35.4117647 L37.7217647,4.98039216 C37.7217647,3.68627451 36.6629412,2.62745098 35.3688235,2.62745098 Z" id="Shape" fill="#01579B"></path>
                    </g>
                </g>
            </g>
        </g>
    </g>
</svg>