<?xml version="1.0" encoding="UTF-8"?>
<svg width="29px" height="29px" viewBox="0 0 29 29" version="1.1" xmlns="http://www.w3.org/2000/svg" xmlns:xlink="http://www.w3.org/1999/xlink">
    <!-- Generator: Sketch 50.2 (55047) - http://www.bohemiancoding.com/sketch -->
    <title>switches-o</title>
    <desc>Created with Sketch.</desc>
    <defs></defs>
    <g id="Symbols" stroke="none" stroke-width="1" fill="none" fill-rule="evenodd">
        <g id="母版" transform="translate(-1765.000000, -20.000000)" fill="#FFFFFF" fill-rule="nonzero">
            <g id="switches-o" transform="translate(1765.000000, 20.000000)">
                <rect id="Rectangle-path" opacity="0" x="0" y="0" width="29" height="29"></rect>
                <path d="M20.5039062,13.0556641 L8.49609375,13.0556641 C7.93251953,13.0556641 7.4765625,12.599707 7.4765625,12.0361328 C7.4765625,11.4725586 7.93251953,11.0166016 8.49609375,11.0166016 L17.9352539,11.0166016 L17.2810547,10.3992187 C16.8704102,10.0140625 16.853418,9.36835937 17.2385742,8.95771484 C17.6237305,8.54707031 18.2694336,8.53007812 18.6800781,8.91523437 L21.203418,11.2941406 C21.5064453,11.5801758 21.6055664,12.0248047 21.4526367,12.412793 C21.296875,12.8007812 20.9230469,13.0556641 20.5039062,13.0556641 Z M11.0194336,20.3623047 C10.7673828,20.3623047 10.5181641,20.2716797 10.3199219,20.0847656 L7.79658203,17.7058594 C7.49355469,17.4198242 7.39443359,16.9751953 7.54736328,16.587207 C7.703125,16.1992188 8.07695312,15.9443359 8.49609375,15.9443359 L20.5039062,15.9443359 C21.0674805,15.9443359 21.5234375,16.400293 21.5234375,16.9638672 C21.5234375,17.5274414 21.0674805,17.9833984 20.5039062,17.9833984 L11.0647461,17.9833984 L11.7189453,18.6007812 C12.1295898,18.9859375 12.146582,19.6316406 11.7614258,20.0422852 C11.5631836,20.2546875 11.2913086,20.3623047 11.0194336,20.3623047 Z M14.5,29 C12.5430664,29 10.6427734,28.6176758 8.85576172,27.8586914 C7.12822266,27.1308594 5.57910156,26.0830078 4.24804688,24.7519531 C2.91699219,23.4208984 1.86914062,21.8717773 1.14130859,20.1442383 C0.382324219,18.3572266 0,16.4569336 0,14.5 C0,12.5430664 0.382324219,10.6427734 1.14130859,8.85576172 C1.86914062,7.12822266 2.91699219,5.57910156 4.24804688,4.24804688 C5.57910156,2.91699219 7.12822266,1.86914062 8.85576172,1.14130859 C10.6427734,0.382324219 12.5430664,0 14.5,0 C16.4569336,0 18.3572266,0.382324219 20.1442383,1.14130859 C21.8717773,1.86914062 23.4208984,2.91699219 24.7519531,4.24804688 C26.0830078,5.57910156 27.1280273,7.13105469 27.8586914,8.85576172 C28.6148438,10.6427734 29,12.5430664 29,14.5 C29,16.4569336 28.6176758,18.3572266 27.8586914,20.1442383 C27.1308594,21.8717773 26.0830078,23.4208984 24.7519531,24.7519531 C23.4208984,26.0830078 21.8689453,27.1280273 20.1442383,27.8586914 C18.3572266,28.6176758 16.4569336,29 14.5,29 Z M14.5,2.0390625 C7.62949219,2.0390625 2.0390625,7.62949219 2.0390625,14.5 C2.0390625,21.3705078 7.62949219,26.9609375 14.5,26.9609375 C21.3705078,26.9609375 26.9609375,21.3705078 26.9609375,14.5 C26.9609375,7.62949219 21.3705078,2.0390625 14.5,2.0390625 Z" id="Shape"></path>
            </g>
        </g>
    </g>
</svg>