<?xml version="1.0" encoding="UTF-8"?>
<svg width="31px" height="37px" viewBox="0 0 31 37" version="1.1" xmlns="http://www.w3.org/2000/svg" xmlns:xlink="http://www.w3.org/1999/xlink">
    <!-- Generator: Sketch 50.2 (55047) - http://www.bohemiancoding.com/sketch -->
    <title>新闻</title>
    <desc>Created with Sketch.</desc>
    <defs></defs>
    <g id="index" stroke="none" stroke-width="1" fill="none" fill-rule="evenodd">
        <g id="7-要素首页" transform="translate(-373.000000, -455.000000)" fill="#01579B" fill-rule="nonzero">
            <g id="功能" transform="translate(21.751634, 133.437908)">
                <g id="row4" transform="translate(74.457516, 319.581699)">
                    <g id="航行通告" transform="translate(262.692810, 0.000000)">
                        <g id="新闻" transform="translate(9.202614, 0.418301)">
                            <rect id="Rectangle-path" opacity="0" x="0" y="0" width="40.1568627" height="40.1568627"></rect>
                            <path d="M35.120872,11.3951767 C35.1207917,11.3935715 35.1205911,11.3920064 35.1205108,11.3904013 C35.1191865,11.3658018 35.1168991,11.3413227 35.1140499,11.316964 C35.1132875,11.310463 35.1124849,11.303962 35.1116422,11.2974209 C35.1082713,11.2719385 35.1043385,11.2465365 35.0993625,11.2214153 C35.0993224,11.2211344 35.0992822,11.2208936 35.0992421,11.2206127 C35.0941456,11.19501 35.0879255,11.169648 35.0812239,11.1444867 C35.0795785,11.1383469 35.077853,11.1322472 35.0761274,11.1261074 C35.0694659,11.1027118 35.0622827,11.0794366 35.0542166,11.0565225 C35.0535745,11.0547167 35.0530529,11.0529109 35.0524108,11.0511051 C35.0437829,11.026947 35.0341518,11.0031501 35.023999,10.979594 C35.0212702,10.9732134 35.0184209,10.966913 35.0155718,10.9605725 C35.0060209,10.9393841 34.9959484,10.9183963 34.9851535,10.8977696 C34.9837489,10.8951211 34.9825451,10.8923923 34.9811405,10.8897437 C34.9691417,10.8671909 34.9561799,10.8451597 34.9427364,10.8233693 C34.9390044,10.8173498 34.9352322,10.8113705 34.9313797,10.8054313 C34.9182975,10.7850856 34.9047738,10.7650208 34.8904475,10.7454375 C34.8891633,10.7437119 34.8879996,10.741866 34.8867155,10.7401404 C34.871105,10.7189921 34.8545315,10.6985259 34.8374764,10.6783809 C34.8332627,10.6734048 34.829009,10.668509 34.8247151,10.663573 C34.807018,10.6433477 34.7888794,10.6234434 34.7697776,10.6043416 L26.9981483,2.83267208 C26.9791268,2.81365063 26.9593429,2.79559227 26.9391978,2.77801549 C26.9341013,2.7735611 26.9289647,2.76910671 26.923788,2.76473259 C26.9038035,2.747838 26.8834577,2.73138486 26.86251,2.71589478 C26.8604233,2.71436984 26.8582964,2.71296533 26.8562096,2.71148051 C26.8370277,2.69747525 26.8173642,2.68419235 26.7974598,2.67139098 C26.7912398,2.667378 26.7849795,2.66340518 26.7787193,2.65955275 C26.7571295,2.64622969 26.735299,2.6333882 26.7129869,2.62150984 C26.7099772,2.61990467 26.7068872,2.61850012 26.7038775,2.61693506 C26.6836922,2.60638094 26.6631458,2.59654918 26.6424389,2.58715886 C26.6358175,2.58418925 26.6292363,2.58121969 26.6225747,2.57837047 C26.5992193,2.56833804 26.5756231,2.55878722 26.5517058,2.55023957 C26.5494986,2.5494771 26.5472915,2.5487949 26.5450844,2.54803243 C26.5226118,2.54016702 26.4998582,2.5331042 26.4769041,2.52656306 C26.4705235,2.52475722 26.4641429,2.52295137 26.4577221,2.5212258 C26.4327213,2.51456427 26.4076002,2.50838431 26.382158,2.50332796 C26.3815159,2.50320757 26.3808337,2.50312729 26.3801916,2.50296678 C26.3554717,2.49807098 26.330471,2.49421851 26.3053899,2.49088776 C26.2987284,2.4900049 26.2920669,2.4891622 26.2853652,2.48839973 C26.2613276,2.48563078 26.2372096,2.48338353 26.2129312,2.48205925 C26.2110451,2.48193886 26.2091189,2.48173824 26.2072328,2.48161784 C26.1872081,2.48061459 26.1671031,2.4800929 26.146958,2.4800929 L6.27061973,2.48009294 C5.60571149,2.48009294 5.06673008,3.01907435 5.06673008,3.68398259 L5.06673008,36.4268113 C5.06673008,37.0916795 5.60571149,37.630701 6.27061973,37.630701 L33.9185474,37.630701 C34.5834155,37.630701 35.122437,37.0916795 35.122437,36.4268113 L35.122437,11.455652 C35.122437,11.4354267 35.1218752,11.4152816 35.120872,11.3951767 Z M27.3507676,6.59041294 L31.0120769,10.2517223 L27.3507676,10.2517223 L27.3507676,6.59041294 Z M7.47450937,35.2229217 L7.47450937,4.88787224 L24.9429882,4.88787224 L24.9429882,11.4556521 C24.9429882,12.1205202 25.4820098,12.6595417 26.1468779,12.6595417 L32.7146577,12.6595417 L32.7146577,35.2229217 L7.47450937,35.2229217 Z M11.2679255,14.9600143 L19.0112635,14.9600143 C19.6761316,14.9600143 20.2151531,14.4209927 20.2151531,13.7561246 C20.2151531,13.0912565 19.6761316,12.552235 19.0112635,12.552235 L11.2679255,12.552235 C10.6030574,12.552235 10.0640359,13.0912565 10.0640359,13.7561246 C10.0640359,14.4209927 10.6030574,14.9600143 11.2679255,14.9600143 Z M11.2679255,21.2641423 L21.4606171,21.2641423 C22.1254852,21.2641423 22.6645067,20.7251207 22.6645067,20.0602526 C22.6645067,19.3953845 22.1254852,18.856363 21.4606171,18.856363 L11.2679255,18.856363 C10.6030574,18.856363 10.0640359,19.3953845 10.0640359,20.0602526 C10.0640359,20.7251207 10.6030574,21.2641423 11.2679255,21.2641423 Z M26.6375833,25.1154655 L11.2679255,25.1154655 C10.6030574,25.1154655 10.0640359,25.6544871 10.0640359,26.3193552 C10.0640359,26.9842233 10.6030574,27.5232448 11.2679255,27.5232448 L26.6375833,27.5232448 C27.3024515,27.5232448 27.841473,26.9842233 27.841473,26.3193552 C27.841473,25.6544871 27.3024515,25.1154655 26.6375833,25.1154655 Z" id="Shape"></path>
                        </g>
                    </g>
                </g>
            </g>
        </g>
    </g>
</svg>