<?xml version="1.0" standalone="no"?><!DOCTYPE svg PUBLIC "-//W3C//DTD SVG 1.1//EN" "http://www.w3.org/Graphics/SVG/1.1/DTD/svg11.dtd"><svg t="1536127250867" class="icon" style="" viewBox="0 0 1024 1024" version="1.1" xmlns="http://www.w3.org/2000/svg" p-id="2147" xmlns:xlink="http://www.w3.org/1999/xlink" width="200" height="200"><defs><style type="text/css"></style></defs><path d="M511.563 65.144c-246.87 0-446.998 200.128-446.998 446.998S264.693 959.14 511.563 959.14 958.56 759.011 958.56 512.141 758.433 65.144 511.563 65.144zM785.211 785.79c-35.561 35.561-76.954 63.473-123.03 82.961-47.672 20.164-98.348 30.388-150.619 30.388s-102.946-10.224-150.619-30.388c-46.076-19.488-87.469-47.401-123.03-82.961-35.561-35.561-63.473-76.954-82.962-123.03-20.164-47.672-30.388-98.348-30.388-150.618s10.224-102.946 30.388-150.619c19.489-46.076 47.401-87.469 82.962-123.03 35.56-35.561 76.954-63.473 123.03-82.962 47.672-20.164 98.348-30.388 150.619-30.388s102.946 10.224 150.619 30.388c46.076 19.489 87.469 47.401 123.03 82.962 35.561 35.56 63.473 76.954 82.962 123.03 20.164 47.672 30.388 98.348 30.388 150.619s-10.224 102.946-30.388 150.618c-19.489 46.076-47.401 87.47-82.962 123.03z" fill="#dc3545" p-id="2148"></path><path d="M690.087 336.983c-11.715-11.716-30.711-11.716-42.426 0L513.535 471.109 379.41 336.983c-11.716-11.716-30.711-11.716-42.427 0-11.715 11.716-11.715 30.711 0 42.427l134.126 134.126-134.126 134.125c-11.715 11.716-11.715 30.71 0 42.426 5.858 5.858 13.536 8.787 21.213 8.787s15.355-2.929 21.213-8.787l134.126-134.126 134.126 134.126c5.857 5.858 13.535 8.787 21.213 8.787s15.355-2.929 21.213-8.787c11.716-11.716 11.716-30.71 0-42.426L555.961 513.535 690.087 379.41c11.716-11.716 11.716-30.711 0-42.427z" fill="#dc3545" p-id="2149"></path></svg>