<?xml version="1.0" encoding="UTF-8"?>
<svg width="37px" height="36px" viewBox="0 0 37 36" version="1.1" xmlns="http://www.w3.org/2000/svg" xmlns:xlink="http://www.w3.org/1999/xlink">
    <!-- Generator: Sketch 50.2 (55047) - http://www.bohemiancoding.com/sketch -->
    <title>船舶</title>
    <desc>Created with Sketch.</desc>
    <defs></defs>
    <g id="index" stroke="none" stroke-width="1" fill="none" fill-rule="evenodd">
        <g id="1.2-最大级别" transform="translate(-102.000000, -163.000000)" fill-rule="nonzero">
            <g id="功能" transform="translate(21.751634, 133.437908)">
                <g id="Group-13" transform="translate(68.601307, 25.934641)">
                    <g id="船舶" transform="translate(10.000000, 1.673203)">
                        <rect id="Rectangle-path" fill="#000000" opacity="0" x="0.0392156863" y="0" width="40.1568627" height="40.1568627"></rect>
                        <path d="M34.1647059,32 C33.5294118,32 32.9647059,32.0470588 32.4588235,32.1254902 L37.5254902,22.4156863 C37.7058824,22.0705882 37.7372549,21.6666667 37.6078431,21.2980392 C37.4784314,20.9294118 37.2039216,20.6313725 36.8470588,20.4745098 L29.0196078,17.0039216 L29.0196078,9.01960784 C29.0196078,8.54901961 28.7882353,8.11372549 28.3960784,7.85098039 L20.9058824,2.79215686 C20.4313725,2.47058824 19.8078431,2.47058824 19.3294118,2.78823529 L11.7607843,7.84705882 C11.3686275,8.10980392 11.1333333,8.54901961 11.1333333,9.01960784 L11.1333333,17.0470588 L3.38823529,20.4745098 C3.03137255,20.6313725 2.75686275,20.9294118 2.62745098,21.2941176 C2.49803922,21.6588235 2.5254902,22.0627451 2.70196078,22.4117647 L8.80392157,34.2901961 C8.09803922,34.6156863 7.29019608,34.827451 6.06666667,34.827451 C5.28627451,34.827451 4.68627451,34.7372549 4.20392157,34.6078431 C3.57254902,34.4392157 2.91372549,34.7333333 2.62352941,35.3215686 C2.61568627,35.3333333 2.61176471,35.345098 2.60392157,35.3607843 C2.21176471,36.1607843 2.64705882,37.1215686 3.50980392,37.3490196 C4.29411765,37.5568627 5.1254902,37.654902 6.06666667,37.654902 C8.8,37.654902 10.2235294,36.7960784 11.4784314,36.0392157 C12.6,35.3647059 13.4823529,34.8313725 15.4313725,34.8313725 C17.3803922,34.8313725 18.2627451,35.3647059 19.3843137,36.0392157 C20.6392157,36.7960784 22.0627451,37.654902 24.7960784,37.654902 C27.5294118,37.654902 28.9529412,36.7960784 30.2078431,36.0392157 C31.3294118,35.3647059 32.2117647,34.8313725 34.1607843,34.8313725 C34.9294118,34.8313725 35.5254902,34.9176471 36.0039216,35.0431373 C36.6509804,35.2117647 37.3254902,34.8980392 37.6196078,34.2980392 C38.0117647,33.4980392 37.5764706,32.5372549 36.7137255,32.3098039 C35.9372549,32.0980392 35.1058824,32 34.1647059,32 Z M13.9607843,9.77254902 L20.1137255,5.65882353 L26.1960784,9.76862745 L26.1960784,15.7490196 L20.7098039,13.3176471 C20.345098,13.1568627 19.9294118,13.1568627 19.5647059,13.3176471 L13.9607843,15.7960784 L13.9607843,9.77254902 Z M21.4901961,33.9921569 L21.4901961,21.1764706 C21.4901961,20.3960784 20.8588235,19.7647059 20.0784314,19.7647059 C19.2980392,19.7647059 18.6666667,20.3960784 18.6666667,21.1764706 L18.6666667,32.5137255 C17.8196078,32.2117647 16.7882353,32 15.4352941,32 C13.5490196,32 12.2862745,32.4078431 11.2745098,32.9098039 L5.90196078,22.4509804 L20.1372549,16.1529412 L34.3294118,22.4431373 L28.3803922,33.8352941 C27.4196078,34.4 26.5294118,34.8235294 24.8,34.8235294 C23.2352941,34.8235294 22.3568627,34.4784314 21.4901961,33.9921569 Z" id="Shape" fill="#01579B"></path>
                    </g>
                </g>
            </g>
        </g>
    </g>
</svg>