<?xml version="1.0" encoding="UTF-8"?>
<svg width="36px" height="37px" viewBox="0 0 36 37" version="1.1" xmlns="http://www.w3.org/2000/svg" xmlns:xlink="http://www.w3.org/1999/xlink">
    <!-- Generator: Sketch 50.2 (55047) - http://www.bohemiancoding.com/sketch -->
    <title>要素</title>
    <desc>Created with Sketch.</desc>
    <defs></defs>
    <g id="index" stroke="none" stroke-width="1" fill="none" fill-rule="evenodd">
        <g id="1.2-最大级别" transform="translate(-375.000000, -260.000000)" fill-rule="nonzero">
            <g id="功能" transform="translate(21.751634, 133.437908)">
                <g id="Group-14" transform="translate(68.601307, 124.653595)">
                    <g id="要素" transform="translate(282.732026, 0.000000)">
                        <rect id="Rectangle-path" fill="#000000" opacity="0" x="0.0392156863" y="0" width="40.1568627" height="40.1568627"></rect>
                        <path d="M31.5884542,12.4969379 L20.1176471,5.78536802 L8.64781462,12.4969379 L20.1176471,19.2085078 L31.5884542,12.4969379 Z M35.3905253,18.326418 L37.1598343,19.3621755 C37.558577,19.5956004 37.6925936,20.1080735 37.4591687,20.5068162 C37.3866818,20.6306403 37.283567,20.7337406 37.1597327,20.8062101 L20.1176471,30.7794658 L3.07610059,20.8065256 C2.67732502,20.5731568 2.54323633,20.0607026 2.77660511,19.661927 C2.84912912,19.5379995 2.95232914,19.4348243 3.07627404,19.3623301 L5.27070802,18.0788256 L19.6951541,26.5200941 C19.9561201,26.6728129 20.2791846,26.6728311 20.5401678,26.5201415 L34.5454058,18.3263086 C34.8064269,18.173597 35.1295438,18.1736388 35.3905253,18.326418 Z M35.3906473,25.8893795 L37.1585951,26.9219506 C37.5575727,27.1549737 37.6921054,27.6673116 37.4590823,28.0662892 C37.3866684,28.1902749 37.2835628,28.2935365 37.1596868,28.3661377 L20.5406645,38.1062143 C20.2794326,38.2593171 19.9558615,38.2593171 19.6946296,38.1062143 L3.07622092,28.3664973 C2.67759603,28.1328712 2.54383806,27.6203306 2.77746414,27.2217057 C2.85012751,27.0977237 2.95350263,26.9945495 3.07762575,26.9221274 L4.84811295,25.889102 C5.10916045,25.7367888 5.43206416,25.7371161 5.69280231,25.8899583 L20.1176471,34.345665 L34.5457171,25.8900106 C34.8065566,25.7371441 35.1295797,25.7369028 35.3906473,25.8893795 Z M3.07590173,11.7748741 L19.6951242,2.04996988 C19.9561069,1.89725324 20.2791872,1.89725324 20.5401699,2.04996988 L37.1593924,11.7748741 C37.5581772,12.008227 37.6922863,12.5206759 37.4589333,12.9194608 C37.3864373,13.0433518 37.2832834,13.1465057 37.1593924,13.2190017 L20.5401699,22.943906 C20.2791872,23.0966226 19.9561069,23.0966226 19.6951242,22.943906 L3.07590173,13.2190017 C2.67711689,12.9856488 2.54300784,12.4731999 2.77636077,12.0744151 C2.84885685,11.950524 2.9520107,11.8473702 3.07590173,11.7748741 Z" id="Shape" fill="#01579B"></path>
                    </g>
                </g>
            </g>
        </g>
    </g>
</svg>