<?xml version="1.0" encoding="UTF-8"?>
<svg width="27px" height="33px" viewBox="0 0 27 33" version="1.1" xmlns="http://www.w3.org/2000/svg" xmlns:xlink="http://www.w3.org/1999/xlink">
    <!-- Generator: Sketch 50.2 (55047) - http://www.bohemiancoding.com/sketch -->
    <title>路标</title>
    <desc>Created with Sketch.</desc>
    <defs></defs>
    <g id="index" stroke="none" stroke-width="1" fill="none" fill-rule="evenodd">
        <g id="7-要素首页" transform="translate(-103.000000, -360.000000)" fill="#01579B" fill-rule="nonzero">
            <g id="功能" transform="translate(21.751634, 133.437908)">
                <g id="row-3" transform="translate(64.418301, 222.535948)">
                    <g id="助航标志">
                        <g id="路标" transform="translate(10.039216, 0.418301)">
                            <rect id="Rectangle-path" opacity="0" x="0" y="0" width="40.1568627" height="40.1568627"></rect>
                            <path d="M33.3301961,16.2635294 L30.3184314,10.3403922 C30.1176471,10.1396078 29.9168627,10.0392157 29.6156863,10.0392157 L23.5921569,10.0392157 L23.5921569,8.03137255 C23.5921569,5.8227451 21.785098,4.01568627 19.5764706,4.01568627 L17.5686275,4.01568627 C15.36,4.01568627 13.5529412,5.8227451 13.5529412,8.03137255 L13.5529412,10.0392157 L9.5372549,10.0392157 C8.43294118,10.0392157 7.52941176,10.9427451 7.52941176,12.0470588 L7.52941176,22.0862745 C7.52941176,23.1905882 8.43294118,24.0941176 9.5372549,24.0941176 L13.5529412,24.0941176 L13.5529412,32.1254902 C13.5529412,34.3341176 15.36,36.1411765 17.5686275,36.1411765 L19.5764706,36.1411765 C21.785098,36.1411765 23.5921569,34.3341176 23.5921569,32.1254902 L23.5921569,24.0941176 L29.6156863,24.0941176 C29.9168627,24.0941176 30.1176471,23.9937255 30.3184314,23.7929412 L33.3301961,17.8698039 C33.5309804,17.4682353 33.6313725,17.267451 33.6313725,17.0666667 C33.6313725,16.7654902 33.5309804,16.665098 33.3301961,16.2635294 Z M15.5607843,8.03137255 C15.5607843,6.92705882 16.4643137,6.02352941 17.5686275,6.02352941 L19.5764706,6.02352941 C20.6807843,6.02352941 21.5843137,6.92705882 21.5843137,8.03137255 L21.5843137,10.0392157 L15.5607843,10.0392157 L15.5607843,8.03137255 Z M21.5843137,32.1254902 C21.5843137,33.2298039 20.6807843,34.1333333 19.5764706,34.1333333 L17.5686275,34.1333333 C16.4643137,34.1333333 15.5607843,33.2298039 15.5607843,32.1254902 L15.5607843,24.0941176 L21.5843137,24.0941176 L21.5843137,32.1254902 Z M29.2141176,21.8854902 C29.0133333,21.9858824 28.9129412,22.0862745 28.7121569,22.0862745 L10.6415686,22.0862745 C10.0392157,22.0862745 9.63764706,21.6847059 9.63764706,21.0823529 L9.63764706,13.0509804 C9.63764706,12.4486275 10.0392157,12.0470588 10.6415686,12.0470588 L28.7121569,12.0470588 C28.9129412,12.0470588 29.1137255,12.147451 29.3145098,12.2478431 L31.7239216,17.0666667 L29.2141176,21.8854902 Z" id="Shape"></path>
                        </g>
                    </g>
                </g>
            </g>
        </g>
    </g>
</svg>